<svg xmlns="http://www.w3.org/2000/svg" xmlns:xlink="http://www.w3.org/1999/xlink" width="1320" height="506.835" viewBox="0 0 1320 506.835">
  <defs>
    <linearGradient id="linear-gradient" x1="0.835" y1="0.896" x2="0.013" y2="0.056" gradientUnits="objectBoundingBox">
      <stop offset="0" stop-color="#004b89"/>
      <stop offset="1" stop-color="#008bfd"/>
    </linearGradient>
    <linearGradient id="linear-gradient-2" x1="0.667" y1="0.45" x2="0.105" y2="0.848" gradientUnits="objectBoundingBox">
      <stop offset="0" stop-color="#fdb74d"/>
      <stop offset="1" stop-color="#5038a1"/>
    </linearGradient>
    <clipPath id="clip-path">
      <path id="Rectangle_652" data-name="Rectangle 652" d="M20.787,0H1299.213C1310.693,0,1320,8.4,1320,18.772V488.063c0,10.367-9.307,18.772-20.787,18.772H20.787C9.307,506.835,0,498.431,0,488.063V18.772C0,8.4,9.307,0,20.787,0Z" fill="url(#linear-gradient)"/>
    </clipPath>
    <clipPath id="clip-path-2">
      <path id="Rectangle_652-2" data-name="Rectangle 652" d="M1299.213,0H20.787C9.307,0,0,8.4,0,18.772V488.063c0,10.367,9.307,18.772,20.787,18.772H1299.213c11.48,0,20.787-8.4,20.787-18.772V18.772C1320,8.4,1310.693,0,1299.213,0Z" transform="translate(-10297.533 -13191)" fill="url(#linear-gradient-2)"/>
    </clipPath>
    <linearGradient id="linear-gradient-4" x1="0.5" x2="0.558" y2="0.705" gradientUnits="objectBoundingBox">
      <stop offset="0" stop-color="#5038a1" stop-opacity="0.502"/>
      <stop offset="1" stop-color="#8c6df2" stop-opacity="0"/>
    </linearGradient>
    <linearGradient id="linear-gradient-5" x1="0.5" x2="0.558" y2="0.705" gradientUnits="objectBoundingBox">
      <stop offset="0" stop-color="#fedc72"/>
      <stop offset="1" stop-color="#fedc72" stop-opacity="0.259"/>
    </linearGradient>
    <linearGradient id="linear-gradient-6" x1="0.5" y1="1" x2="0.558" y2="0.295" gradientUnits="objectBoundingBox">
      <stop offset="0" stop-color="#fdb74d"/>
      <stop offset="1" stop-color="#fedc72" stop-opacity="0.322"/>
    </linearGradient>
    <linearGradient id="linear-gradient-7" x1="0.5" x2="0.5" y2="1" gradientUnits="objectBoundingBox">
      <stop offset="0" stop-color="#5038a1"/>
      <stop offset="1" stop-color="#8c6df2" stop-opacity="0"/>
    </linearGradient>
    <linearGradient id="linear-gradient-8" x2="0.5" y2="1" xlink:href="#linear-gradient-4"/>
    <linearGradient id="linear-gradient-9" x1="0.5" x2="0.5" y2="1" gradientUnits="objectBoundingBox">
      <stop offset="0" stop-color="#5038a1"/>
      <stop offset="1" stop-color="#5038a1" stop-opacity="0"/>
    </linearGradient>
    <linearGradient id="linear-gradient-10" x1="0.5" y1="1" x2="0.5" gradientUnits="objectBoundingBox">
      <stop offset="0" stop-color="#fdb74d" stop-opacity="0.302"/>
      <stop offset="1" stop-color="#fedc72" stop-opacity="0"/>
    </linearGradient>
  </defs>
  <g id="Grupo_80142" data-name="Grupo 80142" transform="translate(-144.333 -70)">
    <g id="Grupo_78302" data-name="Grupo 78302" transform="translate(144.333 70)">
      <path id="Rectangle_652-3" data-name="Rectangle 652" d="M1299.213,0H20.787C9.307,0,0,8.4,0,18.772V488.063c0,10.367,9.307,18.772,20.787,18.772H1299.213c11.48,0,20.787-8.4,20.787-18.772V18.772C1320,8.4,1310.693,0,1299.213,0Z" fill="url(#linear-gradient-2)"/>
    </g>
    <g id="Enmascarar_grupo_53" data-name="Enmascarar grupo 53" transform="translate(10441.866 13261)" clip-path="url(#clip-path-2)">
      <rect id="Rectángulo_33785" data-name="Rectángulo 33785" width="338.482" height="1342.571" transform="translate(-10270.187 -13304.036) rotate(-42)" opacity="0.8" fill="url(#linear-gradient-4)"/>
      <rect id="Rectángulo_33789" data-name="Rectángulo 33789" width="338.482" height="1342.571" transform="translate(-9814.187 -13304.036) rotate(-42)" opacity="0.8" fill="url(#linear-gradient-5)"/>
      <rect id="Rectángulo_33788" data-name="Rectángulo 33788" width="456.483" height="1080.571" transform="translate(-9326.324 -12289.016) rotate(-138)" opacity="0.8" fill="url(#linear-gradient-6)"/>
      <rect id="Rectángulo_33786" data-name="Rectángulo 33786" width="338.482" height="401.115" transform="translate(-10452.272 -13265.332) rotate(-42)" fill="url(#linear-gradient-7)"/>
      <rect id="Rectángulo_33787" data-name="Rectángulo 33787" width="1233.069" height="825.236" transform="translate(-9546.23 -11924.148) rotate(-141)" fill="url(#linear-gradient-8)"/>
      <circle id="Elipse_4731" data-name="Elipse 4731" cx="273" cy="273" r="273" transform="translate(-9943.001 -12927) rotate(90)" fill="url(#linear-gradient-9)"/>
      <circle id="Elipse_4732" data-name="Elipse 4732" cx="273" cy="273" r="273" transform="translate(-9765.699 -13464.418)" fill="url(#linear-gradient-10)"/>
    </g>
  </g>
  <g id="Grupo_80587" data-name="Grupo 80587" transform="translate(-144.333 -70)">
    <g id="Elipse_4816" data-name="Elipse 4816" transform="translate(191.333 100)" fill="none" stroke="#fff" stroke-width="3" opacity="0.26">
      <circle cx="12" cy="12" r="12" stroke="none"/>
      <circle cx="12" cy="12" r="10.5" fill="none"/>
    </g>
    <g id="Elipse_4817" data-name="Elipse 4817" transform="translate(771.333 513)" fill="none" stroke="#fff" stroke-width="3" opacity="0.26">
      <circle cx="12" cy="12" r="12" stroke="none"/>
      <circle cx="12" cy="12" r="10.5" fill="none"/>
    </g>
    <g id="Elipse_4818" data-name="Elipse 4818" transform="translate(1343.333 121)" fill="none" stroke="#fff" stroke-width="3" opacity="0.26">
      <circle cx="12" cy="12" r="12" stroke="none"/>
      <circle cx="12" cy="12" r="10.5" fill="none"/>
    </g>
    <g id="Elipse_4819" data-name="Elipse 4819" transform="translate(905.333 226)" fill="#fff" stroke="#fff" stroke-width="3" opacity="0.26">
      <circle cx="7.5" cy="7.5" r="7.5" stroke="none"/>
      <circle cx="7.5" cy="7.5" r="6" fill="none"/>
    </g>
    <g id="Elipse_4820" data-name="Elipse 4820" transform="translate(614.333 416)" fill="none" stroke="#fff" stroke-width="3" opacity="0.26">
      <circle cx="12" cy="12" r="12" stroke="none"/>
      <circle cx="12" cy="12" r="10.5" fill="none"/>
    </g>
    <g id="Elipse_4824" data-name="Elipse 4824" transform="translate(191.333 423)" fill="none" stroke="#fff" stroke-linecap="round" stroke-width="5" stroke-dasharray="10 18" opacity="0.26">
      <circle cx="41" cy="41" r="41" stroke="none"/>
      <circle cx="41" cy="41" r="38.5" fill="none"/>
    </g>
    <g id="Elipse_4825" data-name="Elipse 4825" transform="translate(748.333 94)" fill="none" stroke="#fff" stroke-linecap="round" stroke-width="5" stroke-dasharray="10 18" opacity="0.26">
      <circle cx="41" cy="41" r="41" stroke="none"/>
      <circle cx="41" cy="41" r="38.5" fill="none"/>
    </g>
    <g id="Elipse_4826" data-name="Elipse 4826" transform="translate(1367.333 395)" fill="none" stroke="#fff" stroke-linecap="round" stroke-width="5" stroke-dasharray="10 18" opacity="0.26">
      <circle cx="41" cy="41" r="41" stroke="none"/>
      <circle cx="41" cy="41" r="38.5" fill="none"/>
    </g>
    <circle id="Elipse_4821" data-name="Elipse 4821" cx="5" cy="5" r="5" transform="translate(303.333 522)" fill="#fff" opacity="0.26"/>
    <circle id="Elipse_4827" data-name="Elipse 4827" cx="5" cy="5" r="5" transform="translate(854.333 440)" fill="#fff" opacity="0.26"/>
    <circle id="Elipse_4822" data-name="Elipse 4822" cx="5" cy="5" r="5" transform="translate(707.333 169)" fill="#fff" opacity="0.26"/>
    <circle id="Elipse_4823" data-name="Elipse 4823" cx="8.5" cy="8.5" r="8.5" transform="translate(1414.333 192)" fill="#fff" opacity="0.26"/>
  </g>
</svg>
