<svg xmlns="http://www.w3.org/2000/svg" width="550.133" height="1121.023" viewBox="0 0 550.133 1121.023">
  <g id="Grupo_147575" data-name="Grupo 147575" transform="translate(0 0)">
    <g id="_F9F7EC" data-name=" F9F7EC" transform="translate(146.28 22.57)" style="isolation: isolate">
      <text id="_F9F7EC-2" data-name="#F9F7EC" transform="translate(0 16)" fill="#1f2a40" font-size="17" font-family="Roboto-Regular, Roboto" style="isolation: isolate"><tspan x="0" y="0">#F9F7EC</tspan></text>
    </g>
    <g id="Grupo_147219" data-name="Grupo 147219" transform="translate(354.833 692.711)">
      <g id="Grupo_147218" data-name="Grupo 147218">
        <path id="Trazado_197924" data-name="Trazado 197924" d="M570.072,904.4c0,6.119-4.095,11.079-9.145,11.079s-9.145-4.96-9.145-11.079,4.094-11.08,9.145-11.08S570.072,898.285,570.072,904.4Z" transform="translate(-551.782 -893.325)" fill="#f4da78"/>
      </g>
    </g>
    <g id="Grupo_147221" data-name="Grupo 147221" transform="translate(439.928 483.323)">
      <g id="Grupo_147220" data-name="Grupo 147220">
        <path id="Trazado_197925" data-name="Trazado 197925" d="M645.612,750.992c0,6.119-4.095,11.08-9.145,11.08s-9.145-4.961-9.145-11.08,4.094-11.08,9.145-11.08S645.612,744.872,645.612,750.992Z" transform="translate(-627.322 -739.912)" fill="#f4da78"/>
      </g>
    </g>
    <g id="Grupo_147223" data-name="Grupo 147223" transform="translate(220.701 592.602)">
      <g id="Grupo_147222" data-name="Grupo 147222">
        <ellipse id="Elipse_5811" data-name="Elipse 5811" cx="4.572" cy="5.54" rx="4.572" ry="5.54" fill="#f4da78"/>
      </g>
    </g>
    <g id="Grupo_147225" data-name="Grupo 147225" transform="translate(110.374 564.968)">
      <g id="Grupo_147224" data-name="Grupo 147224">
        <path id="Trazado_197926" data-name="Trazado 197926" d="M343.915,805.271c0,3.059-2.047,5.539-4.572,5.539s-4.572-2.48-4.572-5.539,2.048-5.54,4.572-5.54S343.915,802.211,343.915,805.271Z" transform="translate(-334.77 -799.731)" fill="#f4da78"/>
      </g>
    </g>
    <g id="Grupo_147227" data-name="Grupo 147227" transform="translate(424.507 247.975)">
      <g id="Grupo_147226" data-name="Grupo 147226">
        <path id="Trazado_197927" data-name="Trazado 197927" d="M622.778,573.019c0,3.06-2.048,5.54-4.572,5.54s-4.572-2.48-4.572-5.54,2.047-5.54,4.572-5.54S622.778,569.96,622.778,573.019Z" transform="translate(-613.633 -567.479)" fill="#f4da78"/>
      </g>
    </g>
    <g id="Grupo_147266" data-name="Grupo 147266" transform="translate(41.525 3.102)">
      <g id="Grupo_147234" data-name="Grupo 147234">
        <g id="Grupo_147230" data-name="Grupo 147230">
          <g id="Grupo_147229" data-name="Grupo 147229">
            <g id="Grupo_147228" data-name="Grupo 147228">
              <path id="Trazado_197928" data-name="Trazado 197928" d="M445.932,388.067c-59.569,5.242-124.6,14.8-172.281,36.978L288.71,548.514s92.426-40.075,167.623-37.292Z" transform="translate(-273.651 -388.067)" fill="#eab556"/>
            </g>
          </g>
        </g>
        <g id="Grupo_147233" data-name="Grupo 147233" opacity="0.8">
          <g id="Grupo_147232" data-name="Grupo 147232">
            <g id="Grupo_147231" data-name="Grupo 147231">
              <path id="Trazado_197929" data-name="Trazado 197929" d="M445.932,388.067c-59.569,5.242-124.6,14.8-172.281,36.978L288.71,548.514s92.426-40.075,167.623-37.292Z" transform="translate(-273.651 -388.067)" fill="#fff"/>
            </g>
          </g>
        </g>
      </g>
      <g id="Grupo_147237" data-name="Grupo 147237" transform="translate(14.692 43.82)">
        <g id="Grupo_147236" data-name="Grupo 147236">
          <g id="Grupo_147235" data-name="Grupo 147235">
            <path id="Trazado_197930" data-name="Trazado 197930" d="M439.986,483.219a2.518,2.518,0,0,1-.572.131l-1.689.281-6.5.984c-2.824.4-6.28.906-10.278,1.619-4,.7-8.565,1.387-13.582,2.4a689.534,689.534,0,0,0-77.806,19.4c-10.446,3.265-20.512,6.635-29.724,10.134l-.458.175-.064-.571c-3.22-28.314-6.336-52.722-8.727-70.031l-2.876-20.263c-.336-2.316-.6-4.126-.784-5.416-.077-.579-.139-1.04-.186-1.4a2.56,2.56,0,0,1-.041-.48,2.448,2.448,0,0,1,.109.464c.066.358.15.813.255,1.385.219,1.283.524,3.083.914,5.387.776,4.7,1.847,11.575,3.109,20.22,2.53,17.287,5.753,41.686,9.023,70l-.522-.4c9.239-3.536,19.3-6.92,29.764-10.19a643.637,643.637,0,0,1,77.926-19.122c5.026-.965,9.6-1.608,13.609-2.251,4.007-.659,7.47-1.1,10.3-1.448l6.521-.8,1.7-.181A2.53,2.53,0,0,1,439.986,483.219Z" transform="translate(-286.694 -420.173)" fill="#eab556"/>
          </g>
        </g>
      </g>
      <g id="Grupo_147240" data-name="Grupo 147240" transform="translate(21.04 55.791)">
        <g id="Grupo_147239" data-name="Grupo 147239">
          <g id="Grupo_147238" data-name="Grupo 147238">
            <path id="Trazado_197931" data-name="Trazado 197931" d="M441.293,450.005c-.042.012-.224-.86-.686-2.458a28,28,0,0,0-3.065-6.382,29.266,29.266,0,0,0-7.232-7.673,27.123,27.123,0,0,0-2.573-1.66,21.44,21.44,0,0,0-2.912-1.275,13.365,13.365,0,0,0-6.626-.781,12.651,12.651,0,0,0-6.749,3.217,26.214,26.214,0,0,0-5.4,7.108c-3.133,5.621-5.172,12.468-7.571,19.582-1.263,3.508-2.914,7.14-5.6,9.734a9.982,9.982,0,0,1-4.651,2.7,7.813,7.813,0,0,1-5.232-.732c-6.786-3.258-9.8-12.727-16.658-15.606a11.323,11.323,0,0,0-10.172,1.007,13.477,13.477,0,0,0-4.031,3.77,26.077,26.077,0,0,0-2.687,5.23c-1.53,3.656-2.681,7.722-5.271,10.593a7.268,7.268,0,0,1-4.621,2.524,7.753,7.753,0,0,1-4.837-1.258,19.516,19.516,0,0,1-6.653-7.92A76.622,76.622,0,0,1,324.546,460a51.275,51.275,0,0,0-3.485-8.787,16.032,16.032,0,0,0-5.328-5.989,11.658,11.658,0,0,0-12.214-.431,21.448,21.448,0,0,0-7.754,6.772,19.751,19.751,0,0,0-2.907,6.441c-.41,1.621-.469,2.525-.528,2.513a13.678,13.678,0,0,1,.366-2.569,19.4,19.4,0,0,1,2.818-6.635,21.723,21.723,0,0,1,7.819-7.043,12.066,12.066,0,0,1,12.674.317,16.6,16.6,0,0,1,5.591,6.188,51.6,51.6,0,0,1,3.595,8.915,76.424,76.424,0,0,0,3.5,9.568,18.694,18.694,0,0,0,6.371,7.548,7.091,7.091,0,0,0,4.417,1.145,6.547,6.547,0,0,0,4.158-2.3c2.376-2.616,3.536-6.594,5.07-10.312a27,27,0,0,1,2.8-5.446,14.349,14.349,0,0,1,4.282-4.015,12.011,12.011,0,0,1,10.811-1.067c3.654,1.454,6.267,4.866,8.692,7.937,2.407,3.124,4.9,6.172,8.008,7.709a7.139,7.139,0,0,0,4.78.688,9.238,9.238,0,0,0,4.3-2.489c2.538-2.432,4.142-5.9,5.4-9.353,2.393-7.02,4.489-13.979,7.7-19.676a26.767,26.767,0,0,1,5.6-7.273,13.143,13.143,0,0,1,7.062-3.295,13.791,13.791,0,0,1,6.84.875,21.619,21.619,0,0,1,2.971,1.342,27.553,27.553,0,0,1,2.608,1.727,29.409,29.409,0,0,1,7.247,7.916,26.948,26.948,0,0,1,2.966,6.554c.238.805.326,1.458.422,1.878A3.718,3.718,0,0,1,441.293,450.005Z" transform="translate(-292.329 -428.944)" fill="#eab556"/>
          </g>
        </g>
      </g>
      <g id="Grupo_147243" data-name="Grupo 147243" transform="translate(8.532 60.411)">
        <g id="Grupo_147242" data-name="Grupo 147242">
          <g id="Grupo_147241" data-name="Grupo 147241">
            <path id="Trazado_197932" data-name="Trazado 197932" d="M284.847,432.56c.044.276-.732.685-1.731.916s-1.845.2-1.888-.081.731-.684,1.731-.914S284.8,432.286,284.847,432.56Z" transform="translate(-281.225 -432.328)" fill="#eab556"/>
          </g>
        </g>
      </g>
      <g id="Grupo_147246" data-name="Grupo 147246" transform="translate(11.814 83.076)">
        <g id="Grupo_147245" data-name="Grupo 147245">
          <g id="Grupo_147244" data-name="Grupo 147244">
            <path id="Trazado_197933" data-name="Trazado 197933" d="M287.112,449.053c.1.254-.487.834-1.3,1.3s-1.56.629-1.658.375.487-.834,1.3-1.3S287.014,448.8,287.112,449.053Z" transform="translate(-284.139 -448.934)" fill="#eab556"/>
          </g>
        </g>
      </g>
      <g id="Grupo_147249" data-name="Grupo 147249" transform="translate(15.11 107.671)">
        <g id="Grupo_147248" data-name="Grupo 147248">
          <g id="Grupo_147247" data-name="Grupo 147247">
            <path id="Trazado_197934" data-name="Trazado 197934" d="M290.032,467.116c.077.265-.525.759-1.343,1.106s-1.543.412-1.619.147.525-.759,1.343-1.1S289.957,466.853,290.032,467.116Z" transform="translate(-287.064 -466.955)" fill="#eab556"/>
          </g>
        </g>
      </g>
      <g id="Grupo_147252" data-name="Grupo 147252" transform="translate(18.732 131.889)">
        <g id="Grupo_147251" data-name="Grupo 147251">
          <g id="Grupo_147250" data-name="Grupo 147250">
            <path id="Trazado_197935" data-name="Trazado 197935" d="M293.575,484.864c.07.266-.611.764-1.52,1.11s-1.7.41-1.771.143.611-.764,1.52-1.111S293.506,484.6,293.575,484.864Z" transform="translate(-290.28 -484.699)" fill="#eab556"/>
          </g>
        </g>
      </g>
      <g id="Grupo_147265" data-name="Grupo 147265" transform="translate(134.35 10.99)">
        <g id="Grupo_147255" data-name="Grupo 147255">
          <g id="Grupo_147254" data-name="Grupo 147254">
            <g id="Grupo_147253" data-name="Grupo 147253">
              <path id="Trazado_197936" data-name="Trazado 197936" d="M392.928,400.817a7.062,7.062,0,0,1,1.945-.532c1.279-.268,3.156-.607,5.542-1.014,4.773-.814,11.579-1.884,19.7-3.1l.378-.056.036.463c.632,8.289,1.361,17.833,2.132,27.954l.031.42.036.489-.4.06-26.631,3.951-.357.053-.037-.427c-.747-8.462-1.37-15.525-1.818-20.615-.189-2.361-.341-4.262-.455-5.69a15.833,15.833,0,0,1-.1-1.96,20.683,20.683,0,0,1,.291,2.079q.243,2.16.648,5.739c.527,5.023,1.258,11.994,2.135,20.347l-.394-.374,26.615-4.11-.365.549-.032-.42c-.738-10.123-1.434-19.672-2.039-27.963l.413.405Z" transform="translate(-392.917 -396.119)" fill="#eab556"/>
            </g>
          </g>
        </g>
        <g id="Grupo_147258" data-name="Grupo 147258" transform="translate(4.443 9.231)">
          <g id="Grupo_147257" data-name="Grupo 147257">
            <g id="Grupo_147256" data-name="Grupo 147256">
              <path id="Trazado_197937" data-name="Trazado 197937" d="M417.165,403.263c-.006.3-4.582.3-10.174,1.028-5.6.7-10.072,1.86-10.129,1.568-.059-.25,4.378-1.864,10.041-2.577C412.562,402.545,417.179,403,417.165,403.263Z" transform="translate(-396.86 -402.882)" fill="#eab556"/>
            </g>
          </g>
        </g>
        <g id="Grupo_147261" data-name="Grupo 147261" transform="translate(6.037 16.561)">
          <g id="Grupo_147260" data-name="Grupo 147260">
            <g id="Grupo_147259" data-name="Grupo 147259">
              <path id="Trazado_197938" data-name="Trazado 197938" d="M417.272,408.538c0,.293-4.267.491-9.5,1.112-5.233.6-9.452,1.4-9.5,1.111-.045-.261,4.138-1.51,9.418-2.12C412.971,408.016,417.275,408.272,417.272,408.538Z" transform="translate(-398.276 -408.253)" fill="#eab556"/>
            </g>
          </g>
        </g>
        <g id="Grupo_147264" data-name="Grupo 147264" transform="translate(7.711 23.026)">
          <g id="Grupo_147263" data-name="Grupo 147263">
            <g id="Grupo_147262" data-name="Grupo 147262">
              <path id="Trazado_197939" data-name="Trazado 197939" d="M410.707,413.129c.029.277-2.4.879-5.419,1.343s-5.5.616-5.525.337,2.4-.879,5.421-1.343S410.678,412.851,410.707,413.129Z" transform="translate(-399.762 -412.99)" fill="#eab556"/>
            </g>
          </g>
        </g>
      </g>
    </g>
    <g id="Grupo_147314" data-name="Grupo 147314" transform="translate(320.461 0)">
      <g id="Grupo_147273" data-name="Grupo 147273">
        <g id="Grupo_147269" data-name="Grupo 147269">
          <g id="Grupo_147268" data-name="Grupo 147268">
            <g id="Grupo_147267" data-name="Grupo 147267">
              <path id="Trazado_197940" data-name="Trazado 197940" d="M704.961,425.223C646.638,403.687,597.435,385.3,531.368,385.8l-10.1,125.813c68.62,7.358,91.554,12.8,154.921,40.586Z" transform="translate(-521.269 -385.794)" fill="#eab556"/>
            </g>
          </g>
        </g>
        <g id="Grupo_147272" data-name="Grupo 147272" opacity="0.8">
          <g id="Grupo_147271" data-name="Grupo 147271">
            <g id="Grupo_147270" data-name="Grupo 147270">
              <path id="Trazado_197941" data-name="Trazado 197941" d="M704.961,425.223C646.638,403.687,597.435,385.3,531.368,385.8l-10.1,125.813c68.62,7.358,91.554,12.8,154.921,40.586Z" transform="translate(-521.269 -385.794)" fill="#fff"/>
            </g>
          </g>
        </g>
      </g>
      <g id="Grupo_147292" data-name="Grupo 147292" transform="translate(25.182 34.182)">
        <g id="Grupo_147291" data-name="Grupo 147291">
          <g id="Grupo_147286" data-name="Grupo 147286">
            <g id="Grupo_147277" data-name="Grupo 147277">
              <g id="Grupo_147276" data-name="Grupo 147276">
                <g id="Grupo_147275" data-name="Grupo 147275">
                  <g id="Grupo_147274" data-name="Grupo 147274">
                    <path id="Trazado_197942" data-name="Trazado 197942" d="M570.1,437.717l2.574-26.693c-6.115-.865-12.658,1.312-17.986,6.027-6.277,5.555-10.856,14.631-11.054,26.4-.021,1.284,0,2.6.091,3.947,0,.033,0,.063,0,.1h0l25.732-3.5Z" transform="translate(-543.624 -410.839)" fill="#eab556"/>
                  </g>
                </g>
              </g>
            </g>
            <g id="Grupo_147281" data-name="Grupo 147281" transform="translate(28.644 0.703)">
              <g id="Grupo_147280" data-name="Grupo 147280">
                <g id="Grupo_147279" data-name="Grupo 147279">
                  <g id="Grupo_147278" data-name="Grupo 147278">
                    <path id="Trazado_197943" data-name="Trazado 197943" d="M593.479,433.159c-2.541-9.9-8.659-18.442-18.331-21.166-.259-.074-.519-.143-.783-.207-.167-.041-.33-.087-.5-.124q-.738-.164-1.5-.281l-.069-.014h0c-.021,0-.042-.008-.063-.012v.005h0l-2.574,26.693-.6,6.273,24.291,10.743.03.012h0a40.078,40.078,0,0,0,1.257-6.832A44.055,44.055,0,0,0,593.479,433.159Z" transform="translate(-569.052 -411.354)" fill="#eab556"/>
                  </g>
                </g>
              </g>
            </g>
            <g id="Grupo_147285" data-name="Grupo 147285" transform="translate(28.644 0.703)" opacity="0.3">
              <g id="Grupo_147284" data-name="Grupo 147284">
                <g id="Grupo_147283" data-name="Grupo 147283">
                  <g id="Grupo_147282" data-name="Grupo 147282">
                    <path id="Trazado_197944" data-name="Trazado 197944" d="M593.479,433.159c-2.541-9.9-8.659-18.442-18.331-21.166-.259-.074-.519-.143-.783-.207-.167-.041-.33-.087-.5-.124q-.738-.164-1.5-.281l-.069-.014h0c-.021,0-.042-.008-.063-.012v.005h0l-2.574,26.693-.6,6.273,24.291,10.743.03.012h0a40.078,40.078,0,0,0,1.257-6.832A44.055,44.055,0,0,0,593.479,433.159Z" transform="translate(-569.052 -411.354)"/>
                  </g>
                </g>
              </g>
            </g>
          </g>
          <g id="Grupo_147290" data-name="Grupo 147290" transform="translate(1.107 36.676)">
            <g id="Grupo_147289" data-name="Grupo 147289">
              <g id="Grupo_147288" data-name="Grupo 147288">
                <g id="Grupo_147287" data-name="Grupo 147287">
                  <path id="Trazado_197945" data-name="Trazado 197945" d="M570.338,437.71l-25.732,3.505c1.07,15.1,10.168,27.618,22.385,29.44,12.279,1.83,23.663-7.747,27.67-22.2L570.37,437.715" transform="translate(-544.606 -437.71)" fill="#eab556"/>
                </g>
              </g>
            </g>
          </g>
        </g>
      </g>
      <g id="Grupo_147295" data-name="Grupo 147295" transform="translate(101.642 42.807)">
        <g id="Grupo_147294" data-name="Grupo 147294">
          <g id="Grupo_147293" data-name="Grupo 147293">
            <path id="Trazado_197946" data-name="Trazado 197946" d="M671.01,437.762a12.5,12.5,0,0,1-2.271-1.114c-1.433-.786-3.52-1.889-6.113-3.2a168.64,168.64,0,0,0-20.7-8.81,161.253,161.253,0,0,0-21.424-5.75c-2.774-.542-5.027-.939-6.588-1.187a11.591,11.591,0,0,1-2.414-.506,11.331,11.331,0,0,1,2.449.113c1.574.128,3.844.419,6.639.872a132.4,132.4,0,0,1,21.568,5.484,139.6,139.6,0,0,1,20.7,9.127c2.572,1.4,4.628,2.608,6.02,3.505A13.39,13.39,0,0,1,671.01,437.762Z" transform="translate(-611.499 -417.158)" fill="#eab556"/>
          </g>
        </g>
      </g>
      <g id="Grupo_147298" data-name="Grupo 147298" transform="translate(99.875 55.94)">
        <g id="Grupo_147297" data-name="Grupo 147297">
          <g id="Grupo_147296" data-name="Grupo 147296">
            <path id="Trazado_197947" data-name="Trazado 197947" d="M669.442,447.383a12.446,12.446,0,0,1-2.272-1.112c-1.433-.788-3.52-1.889-6.113-3.2a168.55,168.55,0,0,0-20.7-8.81,161.216,161.216,0,0,0-21.424-5.75c-2.775-.542-5.028-.94-6.588-1.187a11.757,11.757,0,0,1-2.414-.506,11.343,11.343,0,0,1,2.45.113c1.574.128,3.844.419,6.639.871a132.554,132.554,0,0,1,21.566,5.485,139.626,139.626,0,0,1,20.706,9.127c2.572,1.4,4.626,2.607,6.02,3.505A13.559,13.559,0,0,1,669.442,447.383Z" transform="translate(-609.93 -426.78)" fill="#eab556"/>
          </g>
        </g>
      </g>
      <g id="Grupo_147301" data-name="Grupo 147301" transform="translate(98.108 69.072)">
        <g id="Grupo_147300" data-name="Grupo 147300">
          <g id="Grupo_147299" data-name="Grupo 147299">
            <path id="Trazado_197948" data-name="Trazado 197948" d="M667.874,457a12.358,12.358,0,0,1-2.272-1.114c-1.433-.786-3.52-1.889-6.113-3.2a168.418,168.418,0,0,0-20.7-8.81,161.088,161.088,0,0,0-21.424-5.752c-2.774-.54-5.027-.939-6.588-1.187a11.589,11.589,0,0,1-2.414-.506,11.409,11.409,0,0,1,2.449.115c1.574.127,3.844.418,6.639.871a132.368,132.368,0,0,1,21.568,5.484,139.471,139.471,0,0,1,20.706,9.128c2.572,1.4,4.626,2.607,6.019,3.5A13.428,13.428,0,0,1,667.874,457Z" transform="translate(-608.362 -436.401)" fill="#eab556"/>
          </g>
        </g>
      </g>
      <g id="Grupo_147304" data-name="Grupo 147304" transform="translate(96.342 82.204)">
        <g id="Grupo_147303" data-name="Grupo 147303">
          <g id="Grupo_147302" data-name="Grupo 147302">
            <path id="Trazado_197949" data-name="Trazado 197949" d="M664.538,466.627a11.911,11.911,0,0,1-2.2-1.111c-1.387-.783-3.408-1.884-5.919-3.2a161.107,161.107,0,0,0-20.066-8.806,152.69,152.69,0,0,0-20.808-5.762c-2.7-.543-4.888-.942-6.4-1.19a11,11,0,0,1-2.346-.506,10.7,10.7,0,0,1,2.383.115c1.531.128,3.739.419,6.457.874a125.555,125.555,0,0,1,20.956,5.5,133.371,133.371,0,0,1,20.07,9.125c2.489,1.4,4.477,2.6,5.822,3.5A12.8,12.8,0,0,1,664.538,466.627Z" transform="translate(-606.794 -446.023)" fill="#eab556"/>
          </g>
        </g>
      </g>
      <g id="Grupo_147307" data-name="Grupo 147307" transform="translate(94.574 95.33)">
        <g id="Grupo_147306" data-name="Grupo 147306">
          <g id="Grupo_147305" data-name="Grupo 147305">
            <path id="Trazado_197950" data-name="Trazado 197950" d="M657.057,473.6a9.544,9.544,0,0,1-1.987-.96l-5.31-2.859a130.931,130.931,0,0,0-17.948-7.982,124.109,124.109,0,0,0-18.725-4.7l-5.756-.965a8.972,8.972,0,0,1-2.105-.456,8.592,8.592,0,0,1,2.139.063c1.373.1,3.355.319,5.8.647a101.7,101.7,0,0,1,18.879,4.432,108.458,108.458,0,0,1,17.963,8.3c2.22,1.286,4,2.363,5.209,3.16A10.326,10.326,0,0,1,657.057,473.6Z" transform="translate(-605.225 -455.64)" fill="#eab556"/>
          </g>
        </g>
      </g>
      <g id="Grupo_147310" data-name="Grupo 147310" transform="translate(92.096 108.458)">
        <g id="Grupo_147309" data-name="Grupo 147309">
          <g id="Grupo_147308" data-name="Grupo 147308">
            <path id="Trazado_197951" data-name="Trazado 197951" d="M631.422,471.566c-.036.142-1.607-.328-4.15-1.041s-6.064-1.638-9.985-2.453-7.5-1.414-10.083-1.862-4.189-.733-4.179-.878,1.632-.09,4.245.165a98.226,98.226,0,0,1,10.161,1.575,77.673,77.673,0,0,1,9.991,2.758A16.393,16.393,0,0,1,631.422,471.566Z" transform="translate(-603.025 -465.259)" fill="#eab556"/>
          </g>
        </g>
      </g>
      <g id="Grupo_147313" data-name="Grupo 147313" transform="translate(10.645 14.63)">
        <g id="Grupo_147312" data-name="Grupo 147312">
          <g id="Grupo_147311" data-name="Grupo 147311">
            <path id="Trazado_197952" data-name="Trazado 197952" d="M540.3,396.8s.442-.044,1.341-.085l4.015-.16c3.546-.105,8.673-.037,15.232.412a204.46,204.46,0,0,1,53.5,11.6l.3.106-.055.379c-4.019,27.884-8.8,61.037-13.911,96.511-.208,1.437-.416,2.87-.62,4.278l-.078.543-.442-.141a299.261,299.261,0,0,0-35.724-8.929,310.828,310.828,0,0,0-32.741-4.443l-.392-.03.044-.467c2.812-29.758,5.168-54.69,6.825-72.229.841-8.676,1.5-15.523,1.962-20.246q.346-3.439.535-5.315c.062-.568.109-1.011.146-1.351a2.958,2.958,0,0,1,.063-.438,4.494,4.494,0,0,1-.022.491c-.027.352-.062.812-.106,1.4-.106,1.269-.257,3.075-.452,5.406-.415,4.752-1.014,11.637-1.774,20.364-1.565,17.488-3.789,42.345-6.445,72.017l-.348-.5a306.421,306.421,0,0,1,32.828,4.366,296.326,296.326,0,0,1,35.815,8.918l-.519.4c.2-1.409.411-2.84.62-4.278,5.157-35.466,9.977-68.609,14.03-96.486l.24.486a209.624,209.624,0,0,0-53.306-11.922c-6.526-.524-11.7-.666-15.165-.655l-3.991.011C540.788,396.824,540.3,396.8,540.3,396.8Z" transform="translate(-530.719 -396.513)" fill="#eab556"/>
          </g>
        </g>
      </g>
    </g>
    <g id="Grupo_147316" data-name="Grupo 147316" transform="translate(177.376 139.499)">
      <g id="Grupo_147315" data-name="Grupo 147315">
        <ellipse id="Elipse_5812" data-name="Elipse 5812" cx="1.289" cy="1.562" rx="1.289" ry="1.562" fill="#eab556"/>
      </g>
    </g>
    <g id="Grupo_147481" data-name="Grupo 147481" transform="translate(83.198 108.442)">
      <g id="Grupo_147344" data-name="Grupo 147344" transform="translate(136.993 924.077)">
        <g id="Grupo_147321" data-name="Grupo 147321">
          <g id="Grupo_147320" data-name="Grupo 147320">
            <g id="Grupo_147319" data-name="Grupo 147319">
              <g id="Grupo_147318" data-name="Grupo 147318">
                <g id="Grupo_147317" data-name="Grupo 147317">
                  <path id="Trazado_197953" data-name="Trazado 197953" d="M476.756,1145.883l-6.617,84.915-37.882-3.41,6.485-85.094Z" transform="translate(-432.257 -1142.294)"/>
                </g>
              </g>
            </g>
          </g>
        </g>
        <g id="Grupo_147327" data-name="Grupo 147327" transform="translate(19.373 0.688)">
          <g id="Grupo_147326" data-name="Grupo 147326">
            <g id="Grupo_147325" data-name="Grupo 147325">
              <g id="Grupo_147324" data-name="Grupo 147324">
                <g id="Grupo_147323" data-name="Grupo 147323">
                  <g id="Grupo_147322" data-name="Grupo 147322">
                    <path id="Trazado_197954" data-name="Trazado 197954" d="M449.5,1225.727c-.315-.041,1.069-18.64,3.092-41.537s3.92-41.434,4.237-41.393-1.07,18.636-3.093,41.542S449.815,1225.768,449.5,1225.727Z" transform="translate(-449.455 -1142.798)" fill="#263238"/>
                  </g>
                </g>
              </g>
            </g>
          </g>
        </g>
        <g id="Grupo_147332" data-name="Grupo 147332" transform="translate(0 79.087)">
          <g id="Grupo_147331" data-name="Grupo 147331">
            <g id="Grupo_147330" data-name="Grupo 147330">
              <g id="Grupo_147329" data-name="Grupo 147329">
                <g id="Grupo_147328" data-name="Grupo 147328">
                  <path id="Trazado_197955" data-name="Trazado 197955" d="M470.6,1203.8l-37.88-3.562-.458,6.007,37.882,3.41Z" transform="translate(-432.257 -1200.239)" fill="#263238"/>
                </g>
              </g>
            </g>
          </g>
        </g>
        <g id="Grupo_147338" data-name="Grupo 147338" transform="translate(2.068 46.415)">
          <g id="Grupo_147337" data-name="Grupo 147337">
            <g id="Grupo_147336" data-name="Grupo 147336">
              <g id="Grupo_147335" data-name="Grupo 147335">
                <g id="Grupo_147334" data-name="Grupo 147334">
                  <g id="Grupo_147333" data-name="Grupo 147333">
                    <path id="Trazado_197956" data-name="Trazado 197956" d="M434.1,1187.785a6.242,6.242,0,0,1,1.117-1.739,28.891,28.891,0,0,1,3.725-3.964,24.765,24.765,0,0,1,6.508-4.234,16.817,16.817,0,0,1,9.01-1.42,19.692,19.692,0,0,1,14.109,9.519,22.937,22.937,0,0,1,2.361,5.311,7.025,7.025,0,0,1,.434,2.146c-.219.115-.885-2.995-3.437-6.853a19.587,19.587,0,0,0-13.592-8.738c-6.18-.781-11.584,2.394-14.929,5.079C435.987,1185.638,434.243,1187.964,434.1,1187.785Z" transform="translate(-434.093 -1176.301)" fill="#263238"/>
                  </g>
                </g>
              </g>
            </g>
          </g>
        </g>
        <g id="Grupo_147343" data-name="Grupo 147343" transform="translate(3.926 24.22)" opacity="0.3">
          <g id="Grupo_147342" data-name="Grupo 147342">
            <g id="Grupo_147341" data-name="Grupo 147341">
              <g id="Grupo_147340" data-name="Grupo 147340">
                <g id="Grupo_147339" data-name="Grupo 147339">
                  <path id="Trazado_197957" data-name="Trazado 197957" d="M436.455,1160.039l-.713,9.358,37.986,3.21.549-7.046Z" transform="translate(-435.742 -1160.039)"/>
                </g>
              </g>
            </g>
          </g>
        </g>
      </g>
      <g id="Grupo_147372" data-name="Grupo 147372" transform="translate(295.802 921.726)">
        <g id="Grupo_147349" data-name="Grupo 147349">
          <g id="Grupo_147348" data-name="Grupo 147348">
            <g id="Grupo_147347" data-name="Grupo 147347">
              <g id="Grupo_147346" data-name="Grupo 147346">
                <g id="Grupo_147345" data-name="Grupo 147345">
                  <path id="Trazado_197958" data-name="Trazado 197958" d="M611.239,1140.571l4.554,85.115-37.85,3.894-4.707-85.266Z" transform="translate(-573.235 -1140.571)"/>
                </g>
              </g>
            </g>
          </g>
        </g>
        <g id="Grupo_147355" data-name="Grupo 147355" transform="translate(20.006 0.538)">
          <g id="Grupo_147354" data-name="Grupo 147354">
            <g id="Grupo_147353" data-name="Grupo 147353">
              <g id="Grupo_147352" data-name="Grupo 147352">
                <g id="Grupo_147351" data-name="Grupo 147351">
                  <g id="Grupo_147350" data-name="Grupo 147350">
                    <path id="Trazado_197959" data-name="Trazado 197959" d="M594.677,1224.255c-.318.021-1.379-18.61-2.37-41.607s-1.54-41.663-1.222-41.683,1.378,18.607,2.37,41.611S594.994,1224.235,594.677,1224.255Z" transform="translate(-590.995 -1140.965)" fill="#263238"/>
                  </g>
                </g>
              </g>
            </g>
          </g>
        </g>
        <g id="Grupo_147360" data-name="Grupo 147360" transform="translate(4.375 79.245)">
          <g id="Grupo_147359" data-name="Grupo 147359">
            <g id="Grupo_147358" data-name="Grupo 147358">
              <g id="Grupo_147357" data-name="Grupo 147357">
                <g id="Grupo_147356" data-name="Grupo 147356">
                  <path id="Trazado_197960" data-name="Trazado 197960" d="M614.987,1198.632l-37.868,3.745.332,6.019,37.85-3.894Z" transform="translate(-577.119 -1198.632)" fill="#263238"/>
                </g>
              </g>
            </g>
          </g>
        </g>
        <g id="Grupo_147366" data-name="Grupo 147366" transform="translate(3.196 46.601)">
          <g id="Grupo_147365" data-name="Grupo 147365">
            <g id="Grupo_147364" data-name="Grupo 147364">
              <g id="Grupo_147363" data-name="Grupo 147363">
                <g id="Grupo_147362" data-name="Grupo 147362">
                  <g id="Grupo_147361" data-name="Grupo 147361">
                    <path id="Trazado_197961" data-name="Trazado 197961" d="M576.08,1189.872a6.7,6.7,0,0,1,.876-1.932,31.6,31.6,0,0,1,3.16-4.627,27.062,27.062,0,0,1,5.873-5.428,17.576,17.576,0,0,1,8.711-3.128,18.3,18.3,0,0,1,15.174,6.695,21.229,21.229,0,0,1,3.026,4.792,6.754,6.754,0,0,1,.707,2.034c-.2.156-1.265-2.787-4.289-6.108a18.236,18.236,0,0,0-14.562-6.022c-6.2.414-11.124,4.585-14.078,7.875C577.664,1187.39,576.247,1190.02,576.08,1189.872Z" transform="translate(-576.072 -1174.714)" fill="#263238"/>
                  </g>
                </g>
              </g>
            </g>
          </g>
        </g>
        <g id="Grupo_147371" data-name="Grupo 147371" transform="translate(1.339 26.214)" opacity="0.3">
          <g id="Grupo_147370" data-name="Grupo 147370">
            <g id="Grupo_147369" data-name="Grupo 147369">
              <g id="Grupo_147368" data-name="Grupo 147368">
                <g id="Grupo_147367" data-name="Grupo 147367">
                  <path id="Trazado_197962" data-name="Trazado 197962" d="M574.424,1161.575l.518,9.376,37.926-4.111-.378-7.062Z" transform="translate(-574.424 -1159.777)"/>
                </g>
              </g>
            </g>
          </g>
        </g>
      </g>
      <g id="Grupo_147444" data-name="Grupo 147444" transform="translate(146.86)">
        <g id="Grupo_147382" data-name="Grupo 147382" transform="translate(8.542 26.275)">
          <g id="Grupo_147381" data-name="Grupo 147381">
            <g id="Grupo_147380" data-name="Grupo 147380">
              <g id="Grupo_147379" data-name="Grupo 147379">
                <g id="Grupo_147378" data-name="Grupo 147378">
                  <g id="Grupo_147377" data-name="Grupo 147377">
                    <g id="Grupo_147376" data-name="Grupo 147376">
                      <g id="Grupo_147375" data-name="Grupo 147375">
                        <g id="Grupo_147374" data-name="Grupo 147374">
                          <g id="Grupo_147373" data-name="Grupo 147373">
                            <path id="Trazado_197963" data-name="Trazado 197963" d="M519.8,627.566,467.634,637l-2.442-54.079s-3.768-.2-7.1-23.27-9.491-62.178-9.491-62.178h0c21.343-15.992,48.271-17.289,70.379-3.392l3.281,2.064Z" transform="translate(-448.599 -484.498)" fill="#ffbe9d"/>
                          </g>
                        </g>
                      </g>
                    </g>
                  </g>
                </g>
              </g>
            </g>
          </g>
        </g>
        <g id="Grupo_147390" data-name="Grupo 147390" transform="translate(79.809 65.776)">
          <g id="Grupo_147389" data-name="Grupo 147389">
            <g id="Grupo_147388" data-name="Grupo 147388">
              <g id="Grupo_147387" data-name="Grupo 147387">
                <g id="Grupo_147386" data-name="Grupo 147386">
                  <g id="Grupo_147385" data-name="Grupo 147385">
                    <g id="Grupo_147384" data-name="Grupo 147384">
                      <g id="Grupo_147383" data-name="Grupo 147383">
                        <path id="Trazado_197964" data-name="Trazado 197964" d="M511.864,515.234c.313-.236,12.952-7.362,14.633,8.529s-12.3,14.768-12.372,14.316S511.864,515.234,511.864,515.234Z" transform="translate(-511.864 -513.439)" fill="#ffbe9d"/>
                      </g>
                    </g>
                  </g>
                </g>
              </g>
            </g>
          </g>
        </g>
        <g id="Grupo_147398" data-name="Grupo 147398" transform="translate(5.196 76.641)">
          <g id="Grupo_147397" data-name="Grupo 147397">
            <g id="Grupo_147396" data-name="Grupo 147396">
              <g id="Grupo_147395" data-name="Grupo 147395">
                <g id="Grupo_147394" data-name="Grupo 147394">
                  <g id="Grupo_147393" data-name="Grupo 147393">
                    <g id="Grupo_147392" data-name="Grupo 147392">
                      <g id="Grupo_147391" data-name="Grupo 147391">
                        <path id="Trazado_197965" data-name="Trazado 197965" d="M456.337,521.478c-.359-.1-12.913-1.541-10.369,14.182s15.518,9.311,15.469,8.854S456.337,521.478,456.337,521.478Z" transform="translate(-445.628 -521.4)" fill="#ffbe9d"/>
                      </g>
                    </g>
                  </g>
                </g>
              </g>
            </g>
          </g>
        </g>
        <g id="Grupo_147402" data-name="Grupo 147402" transform="translate(5.936 22.508)">
          <g id="Grupo_147401" data-name="Grupo 147401">
            <g id="Grupo_147400" data-name="Grupo 147400">
              <g id="Grupo_147399" data-name="Grupo 147399">
                <path id="Trazado_197966" data-name="Trazado 197966" d="M524.3,524.177c-.249,13.641,1.079,20.522.393,29.735-1.085,14.579-5.593,26.48-15.441,35.586s-24.446,11.842-34.978,4.14c-7.31-5.345-12.862-11.913-15.143-21.671s-5.591-27.18-6.989-37.175c-2.521-18.026-5.86-35.076-5.86-35.076l42.828-17.978,27.413,12.527Z" transform="translate(-446.285 -481.738)" fill="#263238"/>
              </g>
            </g>
          </g>
        </g>
        <g id="Grupo_147407" data-name="Grupo 147407" transform="translate(47.678 137.662)">
          <g id="Grupo_147406" data-name="Grupo 147406">
            <g id="Grupo_147405" data-name="Grupo 147405">
              <g id="Grupo_147404" data-name="Grupo 147404">
                <g id="Grupo_147403" data-name="Grupo 147403">
                  <path id="Trazado_197967" data-name="Trazado 197967" d="M483.341,571.072c-.018.378,3.583.7,7.829-.718,4.255-1.391,7.2-3.883,7.022-4.2-.18-.371-3.28,1.463-7.349,2.789C486.785,570.309,483.335,570.642,483.341,571.072Z" transform="translate(-483.341 -566.108)" fill="#263238"/>
                </g>
              </g>
            </g>
          </g>
        </g>
        <g id="Grupo_147443" data-name="Grupo 147443">
          <g id="Grupo_147410" data-name="Grupo 147410">
            <g id="Grupo_147409" data-name="Grupo 147409">
              <g id="Grupo_147408" data-name="Grupo 147408">
                <path id="Trazado_197968" data-name="Trazado 197968" d="M525.85,553.129c-.523-13.827-1.761-29.516-1.859-44.181-.037-5.5.563-13.565-.569-18.892-1.135-5.349-2.323-10.833-5.022-15.33-3.385-5.638-9.1-9.246-15.01-9.468s-11.875,2.941-15.667,8.309a13.278,13.278,0,0,0-16.067-4.047c-5.417,2.625-9.2,9.384-9.078,16.223a9.183,9.183,0,0,0-12.211.842c-3.348,3.353-4.48,9.4-2.628,14.024a11.359,11.359,0,0,0-6.407,8.055,13.149,13.149,0,0,0,2.182,10.62c2.533,3.278,6.486,4.581,9.207,7.646a14.982,14.982,0,0,1,2.583,14.136" transform="translate(-441.016 -465.247)" fill="#263238"/>
              </g>
            </g>
          </g>
          <g id="Grupo_147414" data-name="Grupo 147414" transform="translate(17.07 34.332)">
            <g id="Grupo_147413" data-name="Grupo 147413">
              <g id="Grupo_147412" data-name="Grupo 147412">
                <g id="Grupo_147411" data-name="Grupo 147411">
                  <path id="Trazado_197969" data-name="Trazado 197969" d="M456.175,506.913a3.729,3.729,0,0,0,.686,1.388,9.431,9.431,0,0,0,3.012,2.866,8.1,8.1,0,0,0,6.016,1,10.2,10.2,0,0,0,6.546-5.259l-.971-.115a9.693,9.693,0,0,0,6.953,6.752c3.28.953,7.132-.43,9.741-3.412a19.053,19.053,0,0,0,4.445-9.669l-1.049.352a11.414,11.414,0,0,0,10.836,4.443,11.729,11.729,0,0,0,7.86-5.659,15.489,15.489,0,0,0,2.23-6.643,6.893,6.893,0,0,0-.078-2.556c-.095,0-.071.9-.335,2.487a15.971,15.971,0,0,1-2.435,6.171,10.928,10.928,0,0,1-7.37,4.983,10.567,10.567,0,0,1-9.8-4.179l-.811-1.055-.239,1.406a17.727,17.727,0,0,1-4.1,8.857c-2.393,2.7-5.7,3.9-8.633,3.093a8.528,8.528,0,0,1-6.188-5.791l-.376-1.272-.6,1.157a9.453,9.453,0,0,1-5.8,4.9,7.669,7.669,0,0,1-5.566-.655C457.214,508.918,456.309,506.747,456.175,506.913Z" transform="translate(-456.169 -490.401)" fill="#455a64"/>
                </g>
              </g>
            </g>
          </g>
          <g id="Grupo_147418" data-name="Grupo 147418" transform="translate(15.939 16.964)">
            <g id="Grupo_147417" data-name="Grupo 147417">
              <g id="Grupo_147416" data-name="Grupo 147416">
                <g id="Grupo_147415" data-name="Grupo 147415">
                  <path id="Trazado_197970" data-name="Trazado 197970" d="M455.541,505.272c.225.014-.389-2.573,1.114-6.124a9,9,0,0,1,4.147-4.554,7.347,7.347,0,0,1,6.921.183l1.192.691-.319-1.523a14.036,14.036,0,0,1-.155-4.632,13.189,13.189,0,0,1,4.435-8.443,9.391,9.391,0,0,1,6.777-2.054c4.163.433,6.113,2.922,6.234,2.655.047-.053-.35-.7-1.333-1.542a9.847,9.847,0,0,0-12.314-.175,14.246,14.246,0,0,0-5.034,9.349,15.4,15.4,0,0,0,.2,5.216l.873-.834a8.176,8.176,0,0,0-7.9-.046,9.849,9.849,0,0,0-4.447,5.313,11.652,11.652,0,0,0-.742,4.814A3.657,3.657,0,0,0,455.541,505.272Z" transform="translate(-455.165 -477.676)" fill="#455a64"/>
                </g>
              </g>
            </g>
          </g>
          <g id="Grupo_147422" data-name="Grupo 147422" transform="translate(43.144 26.409)">
            <g id="Grupo_147421" data-name="Grupo 147421">
              <g id="Grupo_147420" data-name="Grupo 147420">
                <g id="Grupo_147419" data-name="Grupo 147419">
                  <path id="Trazado_197971" data-name="Trazado 197971" d="M480.654,497.695c.159-.12-.157-.894-.255-2.178a12.113,12.113,0,0,1,.755-4.941c.663-1.808,1.5-3.684,1.986-4.69.571-.947,1.282-.5,1.365-.6.065-.041.024-.364-.376-.579a1.39,1.39,0,0,0-1.637.484,12.106,12.106,0,0,0-1.281,2.1A20.256,20.256,0,0,0,480,490.036a10.208,10.208,0,0,0-.466,5.685C479.9,497.179,480.535,497.808,480.654,497.695Z" transform="translate(-479.316 -484.596)" fill="#455a64"/>
                </g>
              </g>
            </g>
          </g>
          <g id="Grupo_147426" data-name="Grupo 147426" transform="translate(54.891 9.196)">
            <g id="Grupo_147425" data-name="Grupo 147425">
              <g id="Grupo_147424" data-name="Grupo 147424">
                <g id="Grupo_147423" data-name="Grupo 147423">
                  <path id="Trazado_197972" data-name="Trazado 197972" d="M502.824,477.294c.132-.086-.159-1.231-1.209-2.723a6.773,6.773,0,0,0-2.341-2.081,4.585,4.585,0,0,0-3.705-.214c-2.6.968-4.046,3.388-4.826,4.972-.792,1.654-1.106,2.745-.968,2.842.155.111.756-.827,1.7-2.271.94-1.407,2.346-3.379,4.445-4.142,2.1-.816,3.981.465,5.06,1.624C502.091,476.473,502.661,477.415,502.824,477.294Z" transform="translate(-489.744 -471.985)" fill="#455a64"/>
                </g>
              </g>
            </g>
          </g>
          <g id="Grupo_147430" data-name="Grupo 147430" transform="translate(70.015 60.267)">
            <g id="Grupo_147429" data-name="Grupo 147429">
              <g id="Grupo_147428" data-name="Grupo 147428">
                <g id="Grupo_147427" data-name="Grupo 147427">
                  <path id="Trazado_197973" data-name="Trazado 197973" d="M503.22,532.02c.289.161,2.353-4.591,3.31-11,.987-6.4.442-11.664.122-11.622-.368.019-.391,5.17-1.351,11.38C504.375,527,502.878,531.862,503.22,532.02Z" transform="translate(-503.17 -509.403)" fill="#455a64"/>
                </g>
              </g>
            </g>
          </g>
          <g id="Grupo_147434" data-name="Grupo 147434" transform="translate(64.568 71.777)">
            <g id="Grupo_147433" data-name="Grupo 147433">
              <g id="Grupo_147432" data-name="Grupo 147432">
                <g id="Grupo_147431" data-name="Grupo 147431">
                  <path id="Trazado_197974" data-name="Trazado 197974" d="M498.426,533.894c.322.113,1.517-3.345,2.309-7.823s.883-8.195.547-8.234-.982,3.547-1.771,7.95S498.09,533.778,498.426,533.894Z" transform="translate(-498.335 -517.836)" fill="#455a64"/>
                </g>
              </g>
            </g>
          </g>
          <g id="Grupo_147438" data-name="Grupo 147438" transform="translate(27.577 96.195)">
            <g id="Grupo_147437" data-name="Grupo 147437">
              <g id="Grupo_147436" data-name="Grupo 147436">
                <g id="Grupo_147435" data-name="Grupo 147435">
                  <path id="Trazado_197975" data-name="Trazado 197975" d="M465.592,535.727c-.305-.022-.044,6.657,3.377,13.594,3.366,6.979,8.129,10.6,8.265,10.279.26-.344-3.965-4.332-7.178-11.016C466.773,541.951,465.975,535.636,465.592,535.727Z" transform="translate(-465.497 -535.726)" fill="#455a64"/>
                </g>
              </g>
            </g>
          </g>
          <g id="Grupo_147442" data-name="Grupo 147442" transform="translate(19.727 85.827)">
            <g id="Grupo_147441" data-name="Grupo 147441">
              <g id="Grupo_147440" data-name="Grupo 147440">
                <g id="Grupo_147439" data-name="Grupo 147439">
                  <path id="Trazado_197976" data-name="Trazado 197976" d="M459.01,528.131c-.3-.112-1.257,5.863.81,12.682,2.01,6.846,5.925,10.768,6.1,10.46.3-.3-3.023-4.469-4.915-10.956C459.032,533.864,459.4,528.14,459.01,528.131Z" transform="translate(-458.528 -528.13)" fill="#455a64"/>
                </g>
              </g>
            </g>
          </g>
        </g>
      </g>
      <g id="Grupo_147445" data-name="Grupo 147445" transform="translate(172.162 140.306)">
        <path id="Trazado_197977" data-name="Trazado 197977" d="M463.477,595.56,463.938,582l54.523-13.953,1.928,11.165Z" transform="translate(-463.477 -568.046)" fill="#fff"/>
      </g>
      <g id="Grupo_147470" data-name="Grupo 147470" transform="translate(0 49.1)">
        <g id="Grupo_147446" data-name="Grupo 147446" transform="translate(0 249.375)">
          <path id="Trazado_197978" data-name="Trazado 197978" d="M312.125,717.325s-2.693,1.676-.814,4.064,26.676,29.068,30.025,31.685,13.383,5.773,13.383,5.773l6.552-1.478,3.835-19.135,4.626-9.206-1.179-2.116,4.355-20.458s-3.78-1.856-5.508,1.44c-2.438,4.651-5.807,12.166-5.807,12.166s-6.82,1.258-9.3-2.327-16.935-33.14-18.685-33.655-4.4.134-2.99,4.834,10.66,21.458,10.307,22.374-1.755,2.178-2.434,1.366-15.425-24.409-17.762-24.813c-2.488-.43-4.275,2.006-1.987,6.557s14.288,21.139,13.739,22.2-2.145-.223-2.145-.223-13.723-17.36-15.65-17.051c-2.138.344-2.473,2.951-1.389,5.106s14.989,18.442,15.234,19.739c.16.848-.43,4.2-1.548,3.055S313.216,716.221,312.125,717.325Z" transform="translate(-310.645 -683.932)" fill="#ffbe9d"/>
        </g>
        <g id="Grupo_147447" data-name="Grupo 147447" transform="translate(132.411 412.047)">
          <path id="Trazado_197979" data-name="Trazado 197979" d="M437.437,846.626l-2.886,226.956-6.362,235.6,52.782,4.621,17.81-240.226L519.047,903.13l4.462-.332,39.873,177.458,24.852,227.735c3.088-.935,49.825-5.406,49.825-5.406l-32.423-461.12-5.4-38.349-138.953,3.741Z" transform="translate(-428.189 -803.117)" fill="#263238"/>
        </g>
        <g id="Grupo_147448" data-name="Grupo 147448" transform="translate(116.608 97.655)">
          <path id="Trazado_197980" data-name="Trazado 197980" d="M595.428,808.437,591.41,677.165l-6.683-90.65H539.17l-11.633-13.744L469.1,586.515l-5.409,19.774s-46.929,18.1-49.532,23.623c0,0,16.46,78.712,24.211,122.82,5.319,30.264,10.92,61.282,10.92,61.282L434.468,959.227c-.589,0,90.273-4.845,90.273-4.845l87.78-11.5Z" transform="translate(-414.16 -572.771)" fill="#4b3b9c"/>
        </g>
        <g id="Grupo_147449" data-name="Grupo 147449" transform="translate(304.77)">
          <path id="Trazado_197981" data-name="Trazado 197981" d="M621.754,571.349s-13.372,1.269-14.164,1.269-14.557,1.533-14.557,1.533.633-4.025,3.8-5.752,9.2-4.4,9.832-5.738,2.036-3.273.769-5.382-24.329-30.472-25.119-32.006-2.057-4.41,0-4.986,4.589,2.11,6.33,3.835,10.72,10.918,11.669,10.342.158-1.534.158-1.534-15.251-19.018-15.41-19.593-1.953-6.183,2.388-5.262c2.081.441,17.928,20.062,18.561,19.3s-13.292-22.431-12.026-24.158,2.69-3.45,5.222,0,13.435,21.09,14.234,21.282,1.747-.767,1.431-2.11-6.795-15.012-6.795-16.545,1.273-1.913,2.538-2.1,14.859,23.635,14.859,23.635,10.49,20.45,11.551,22.815c1.23,2.742,3.007,10.352,3.007,10.352Z" transform="translate(-581.196 -501.221)" fill="#ffbe9d"/>
        </g>
        <g id="Grupo_147450" data-name="Grupo 147450" transform="translate(285.365 56.987)">
          <path id="Trazado_197982" data-name="Trazado 197982" d="M620.595,557.169l9.112,42.584-20.827,9.464L563.97,597.387v80.436l6.351,20.915s93.981-54.954,100.224-61c11.67-11.308-6.856-50.252-6.856-50.252l-17.06-44.51Z" transform="translate(-563.97 -542.974)" fill="#4b3b9c"/>
        </g>
        <g id="Grupo_147451" data-name="Grupo 147451" transform="translate(44.273 154.797)">
          <path id="Trazado_197983" data-name="Trazado 197983" d="M422.281,614.637l-10.512,25.5-26.56,106.537-29.684,9.594-5.578,32.871s46.416,13.185,55.026,8.655c14.621-7.691,39.02-81.042,39.02-81.042l-3.3-62.709Z" transform="translate(-349.947 -614.637)" fill="#4b3b9c"/>
        </g>
        <g id="Grupo_147453" data-name="Grupo 147453" transform="translate(350.839 112.828)">
          <g id="Grupo_147452" data-name="Grupo 147452">
            <path id="Trazado_197984" data-name="Trazado 197984" d="M651.835,602.233c-.267.355-5.5-6.523-13.847-11.577-8.3-5.169-15.974-6.212-15.9-6.681.015-.172,1.941-.143,4.994.565a39.774,39.774,0,0,1,11.448,4.808,45.76,45.76,0,0,1,9.969,8.341C650.781,600.253,651.94,602.117,651.835,602.233Z" transform="translate(-622.092 -583.888)" fill="#263238"/>
          </g>
        </g>
        <g id="Grupo_147455" data-name="Grupo 147455" transform="translate(349.254 110.937)">
          <g id="Grupo_147454" data-name="Grupo 147454">
            <path id="Trazado_197985" data-name="Trazado 197985" d="M643.152,585.1c-.1.441-5.057-1.593-11.33-1.062-6.282.434-10.983,3.21-11.131,2.788-.189-.277,4.473-3.783,11.054-4.25C638.32,582.028,643.311,584.794,643.152,585.1Z" transform="translate(-620.686 -582.502)" fill="#263238"/>
          </g>
        </g>
        <g id="Grupo_147457" data-name="Grupo 147457" transform="translate(165.979 111.391)">
          <g id="Grupo_147456" data-name="Grupo 147456">
            <path id="Trazado_197986" data-name="Trazado 197986" d="M533.625,582.843a15.681,15.681,0,0,1-2.553,2.146,36.608,36.608,0,0,1-3.14,2.238c-1.245.831-2.657,1.794-4.284,2.7a98.774,98.774,0,0,1-11.609,5.838,125.8,125.8,0,0,1-14.809,5.069,131.793,131.793,0,0,1-27.688,4.29c-3.571.165-6.463.175-8.459.079a12.682,12.682,0,0,1-3.1-.274,12.625,12.625,0,0,1,3.093-.3c1.991-.079,4.869-.247,8.416-.543a156.863,156.863,0,0,0,27.471-4.685,141.887,141.887,0,0,0,14.712-4.916,113.832,113.832,0,0,0,11.606-5.5c1.637-.837,3.065-1.728,4.331-2.484,1.276-.733,2.354-1.414,3.221-2.006A14.271,14.271,0,0,1,533.625,582.843Z" transform="translate(-457.988 -582.835)" fill="#263238"/>
          </g>
        </g>
        <g id="Grupo_147459" data-name="Grupo 147459" transform="translate(168.954 331.065)">
          <g id="Grupo_147458" data-name="Grupo 147458">
            <path id="Trazado_197987" data-name="Trazado 197987" d="M547.064,751.745a16.259,16.259,0,0,1-3.35,1.035,93.541,93.541,0,0,1-9.292,1.9,126.308,126.308,0,0,1-31.068,1.011,129.209,129.209,0,0,1-30.593-6.681c-3.82-1.355-6.876-2.595-8.948-3.581a17.426,17.426,0,0,1-3.182-1.635,16.308,16.308,0,0,1,3.334,1.095c2.111.819,5.194,1.9,9.023,3.123a146.546,146.546,0,0,0,30.457,6.218,143.82,143.82,0,0,0,30.877-.577c3.937-.506,7.12-1.014,9.309-1.437A15.853,15.853,0,0,1,547.064,751.745Z" transform="translate(-460.63 -743.784)" fill="#263238"/>
          </g>
        </g>
        <g id="Grupo_147461" data-name="Grupo 147461" transform="translate(77.862 231.295)">
          <g id="Grupo_147460" data-name="Grupo 147460">
            <path id="Trazado_197988" data-name="Trazado 197988" d="M379.786,735.984c-.321-.115,2.938-14.824,7.278-32.852s8.118-32.559,8.44-32.446-2.938,14.821-7.279,32.855S380.106,736.1,379.786,735.984Z" transform="translate(-379.765 -670.685)" fill="#263238"/>
          </g>
        </g>
        <g id="Grupo_147463" data-name="Grupo 147463" transform="translate(220.162 381.569)">
          <g id="Grupo_147462" data-name="Grupo 147462">
            <path id="Trazado_197989" data-name="Trazado 197989" d="M506.3,780.787c.335-.01.943,16.361,1.359,36.561s.482,36.589.149,36.6-.942-16.358-1.357-36.565S505.966,780.8,506.3,780.787Z" transform="translate(-506.088 -780.787)" fill="#263238"/>
          </g>
        </g>
        <g id="Grupo_147465" data-name="Grupo 147465" transform="translate(200.712 505.971)">
          <g id="Grupo_147464" data-name="Grupo 147464">
            <path id="Trazado_197990" data-name="Trazado 197990" d="M541.773,871.978c.061.4-11.746,3.352-26.365,6.6s-26.526,5.555-26.586,5.158,11.742-3.352,26.367-6.6S541.714,871.579,541.773,871.978Z" transform="translate(-488.822 -871.933)" fill="#455a64"/>
          </g>
        </g>
        <g id="Grupo_147467" data-name="Grupo 147467" transform="translate(277.665 677.591)">
          <g id="Grupo_147466" data-name="Grupo 147466">
            <path id="Trazado_197991" data-name="Trazado 197991" d="M586.713,998.281c-.007.468-6.968-.1-15.188,2.382-8.241,2.386-14.2,6.776-14.387,6.366-.078-.152,1.309-1.447,3.8-3.067a40.538,40.538,0,0,1,10.305-4.722,37.449,37.449,0,0,1,10.939-1.56C585,997.727,586.724,998.1,586.713,998.281Z" transform="translate(-557.134 -997.674)" fill="#455a64"/>
          </g>
        </g>
        <g id="Grupo_147469" data-name="Grupo 147469" transform="translate(160.778 687.395)">
          <g id="Grupo_147468" data-name="Grupo 147468">
            <path id="Trazado_197992" data-name="Trazado 197992" d="M472.736,1006.694c-.08.43-4.379-.646-9.711-.336-5.335.253-9.54,1.776-9.651,1.355-.126-.336,4.053-2.55,9.6-2.818C468.514,1004.58,472.838,1006.346,472.736,1006.694Z" transform="translate(-453.372 -1004.858)" fill="#455a64"/>
          </g>
        </g>
      </g>
      <g id="Grupo_147472" data-name="Grupo 147472" transform="translate(124.886 243.671)">
        <g id="Grupo_147471" data-name="Grupo 147471">
          <path id="Trazado_197993" data-name="Trazado 197993" d="M448.362,788.107a6.806,6.806,0,0,1-.381-1.437c-.23-1.118-.515-2.5-.862-4.185-.74-3.854-1.743-9.081-2.965-15.443-2.455-13.252-5.78-31.2-9.454-51.032-3.657-19.844-6.964-37.8-9.406-51.05-1.176-6.375-2.141-11.608-2.853-15.469-.3-1.7-.543-3.09-.741-4.218a7,7,0,0,1-.178-1.494,6.712,6.712,0,0,1,.415,1.423c.257,1.108.575,2.481.961,4.153.813,3.613,1.913,8.865,3.23,15.367,2.634,13.006,6.085,31.025,9.754,50.97s6.864,38.022,9.11,51.131c1.067,6.4,1.942,11.663,2.589,15.543l.641,4.242A6.984,6.984,0,0,1,448.362,788.107Z" transform="translate(-421.509 -643.778)" fill="#263238"/>
        </g>
      </g>
      <g id="Grupo_147474" data-name="Grupo 147474" transform="translate(291.608 205.979)">
        <g id="Grupo_147473" data-name="Grupo 147473">
          <path id="Trazado_197994" data-name="Trazado 197994" d="M569.512,616.162a4.024,4.024,0,0,1,.1.8c.047.614.107,1.392.182,2.36.148,2.076.35,5.139.556,9.087.444,7.894.96,19.325,1.548,33.453,1.163,28.255,2.528,67.3,3.863,110.43.211,6.95.418,13.792.614,20.287l-.007-.085c4.745,37.943,8.943,71.526,11.971,95.747,1.446,11.989,2.612,21.655,3.431,28.441.368,3.261.659,5.827.87,7.682.08.813.145,1.469.2,2a3.19,3.19,0,0,1,.03.685,3.014,3.014,0,0,1-.143-.665c-.08-.521-.181-1.171-.307-1.975q-.39-2.77-1.078-7.643l-3.792-28.374c-3.128-24.2-7.465-57.758-12.364-95.673l-.006-.041v-.044c-.2-6.494-.411-13.336-.624-20.285C571.807,687.2,569.77,624.14,569.512,616.162Z" transform="translate(-569.512 -616.162)" fill="#263238"/>
        </g>
      </g>
      <g id="Grupo_147476" data-name="Grupo 147476" transform="translate(168.354 165.47)" opacity="0.3">
        <g id="Grupo_147475" data-name="Grupo 147475">
          <path id="Trazado_197995" data-name="Trazado 197995" d="M527.324,586.482c-21.963,10.725-43.663,17.343-67.227,17.364a17.692,17.692,0,0,0,12.291,6.555c4.621.516,9.256-.367,13.787-1.425a180.82,180.82,0,0,0,33.54-11.417C523.457,595.863,527.837,590.974,527.324,586.482Z" transform="translate(-460.097 -586.482)"/>
        </g>
      </g>
      <g id="Grupo_147478" data-name="Grupo 147478" transform="translate(126.201 248.254)" opacity="0.3">
        <g id="Grupo_147477" data-name="Grupo 147477">
          <path id="Trazado_197996" data-name="Trazado 197996" d="M422.676,647.136c.361,10.25-.574,22.567,1.2,32.593s5.032,19.857,10.571,27.557C430.348,687.977,426.89,666.821,422.676,647.136Z" transform="translate(-422.676 -647.136)"/>
        </g>
      </g>
      <g id="Grupo_147480" data-name="Grupo 147480" transform="translate(193.607 402.59)" opacity="0.3">
        <g id="Grupo_147479" data-name="Grupo 147479">
          <path id="Trazado_197997" data-name="Trazado 197997" d="M483.234,760.348l-.72-.134c7.107,9.786,18.9,10.8,29.662,10.894s22.444-.752,29.661-10.418A120.731,120.731,0,0,1,483.234,760.348Z" transform="translate(-482.514 -760.214)"/>
        </g>
      </g>
    </g>
    <g id="Grupo_147513" data-name="Grupo 147513" transform="translate(182.164 231.753)">
      <g id="Grupo_147483" data-name="Grupo 147483">
        <g id="Grupo_147482" data-name="Grupo 147482">
          <path id="Trazado_197998" data-name="Trazado 197998" d="M593.91,703.952c-62.291,19.982-122.332,18.467-187.771,0L398.5,559.021c67.619,15.948,135.5,13.93,195.411-3.429Z" transform="translate(-398.499 -555.593)" fill="#eab556"/>
        </g>
      </g>
      <g id="Grupo_147512" data-name="Grupo 147512">
        <g id="Grupo_147485" data-name="Grupo 147485" opacity="0.8">
          <g id="Grupo_147484" data-name="Grupo 147484">
            <path id="Trazado_197999" data-name="Trazado 197999" d="M593.91,703.952c-62.291,19.982-122.332,18.467-187.771,0L398.5,559.021c67.619,15.948,135.5,13.93,195.411-3.429Z" transform="translate(-398.499 -555.593)" fill="#fff"/>
          </g>
        </g>
        <g id="Grupo_147488" data-name="Grupo 147488" transform="translate(19.964 126.318)">
          <g id="Grupo_147487" data-name="Grupo 147487">
            <g id="Grupo_147486" data-name="Grupo 147486">
              <path id="Trazado_198000" data-name="Trazado 198000" d="M582.013,648.146a1.6,1.6,0,0,1-.39.239l-1.176.6c-1.043.5-2.558,1.321-4.568,2.189a150.7,150.7,0,0,1-17.238,6.556c-14.74,4.767-35.786,8.563-59.1,8.169-23.322-.366-44.253-4.25-59.221-7.677-7.493-1.724-13.522-3.317-17.676-4.486-2.078-.57-3.685-1.062-4.774-1.387l-1.236-.389a1.469,1.469,0,0,1-.415-.167,1.447,1.447,0,0,1,.434.065l1.254.291,4.807,1.2c4.172,1.05,10.215,2.535,17.713,4.166,14.98,3.243,35.875,7,59.124,7.37,23.239.392,44.209-3.276,58.943-7.851a169.807,169.807,0,0,0,17.273-6.232c2.023-.809,3.555-1.57,4.617-2.008l1.205-.512A1.549,1.549,0,0,1,582.013,648.146Z" transform="translate(-416.222 -648.143)" fill="#eab556"/>
            </g>
          </g>
        </g>
        <g id="Grupo_147490" data-name="Grupo 147490" transform="translate(70.253 78.211)">
          <g id="Grupo_147489" data-name="Grupo 147489">
            <path id="Trazado_198001" data-name="Trazado 198001" d="M484.849,666.917c-7.816,2.8-15.835,2.057-23.985-.972V614.358a49.927,49.927,0,0,1,23.985,0Z" transform="translate(-460.864 -612.896)" fill="#eab556"/>
          </g>
        </g>
        <g id="Grupo_147493" data-name="Grupo 147493" transform="translate(106.834 50.275)">
          <g id="Grupo_147492" data-name="Grupo 147492">
            <g id="Grupo_147491" data-name="Grupo 147491">
              <path id="Trazado_198002" data-name="Trazado 198002" d="M519.454,671.314a2.463,2.463,0,0,1-.033-.4c-.01-.3-.022-.672-.038-1.123q-.037-1.574-.1-4.306c-.062-3.811-.151-9.236-.263-16.021-.17-13.688-.408-32.846-.684-55.055l.32.47a53.308,53.308,0,0,0-24.821.023l.34-.5.011,1.024c.255,30.487.483,58.023.648,77.684l-.232-.341a46.719,46.719,0,0,0,10.453,1.542,31.974,31.974,0,0,0,7.9-.781,33.711,33.711,0,0,0,4.843-1.541l1.214-.513a2.341,2.341,0,0,1,.444-.161,1.875,1.875,0,0,1-.383.231l-1.219.632a29.227,29.227,0,0,1-4.836,1.733,31.128,31.128,0,0,1-7.964.957,46.011,46.011,0,0,1-10.564-1.407l-.23-.056,0-.287c-.229-19.66-.549-47.194-.9-77.68l-.01-1.024,0-.424.345-.081a53.628,53.628,0,0,1,25.136.023l.319.081,0,.389c.138,22.313.257,41.56.342,55.313.015,6.751.026,12.149.035,15.94q-.012,2.686-.018,4.23c-.008.434-.013.789-.019,1.08A1.391,1.391,0,0,1,519.454,671.314Z" transform="translate(-493.338 -592.428)" fill="#eab556"/>
            </g>
          </g>
        </g>
        <g id="Grupo_147495" data-name="Grupo 147495" transform="translate(145.827 40.298)">
          <g id="Grupo_147494" data-name="Grupo 147494">
            <path id="Trazado_198003" data-name="Trazado 198003" d="M551.938,667.908c-6.423,4.212-14.873,4.77-23.985,4.136v-85.2c8.166-2.1,16.192-2.5,23.985,0Z" transform="translate(-527.953 -585.118)" fill="#eab556"/>
          </g>
        </g>
        <g id="Grupo_147498" data-name="Grupo 147498" transform="translate(32.437 93.523)">
          <g id="Grupo_147497" data-name="Grupo 147497">
            <g id="Grupo_147496" data-name="Grupo 147496">
              <path id="Trazado_198004" data-name="Trazado 198004" d="M451.014,658.6c-.027-.033-.053-.793-.082-2.182q-.036-2.25-.095-5.956c-.046-5.185-.109-12.363-.186-20.922l.234.411c-6.422-2.854-14.461-5.565-23.09-4.645l-.043,0,.38-.5c-.021,10.631-.041,20.589-.057,29.061l-.221-.4a38.972,38.972,0,0,0,9.259,3.2c2.835.62,5.338.974,7.4,1.223l4.8.493a14.553,14.553,0,0,1,1.7.221,10.093,10.093,0,0,1-1.71.048c-1.114-.026-2.749-.082-4.826-.253a67.246,67.246,0,0,1-7.467-1.026,38.053,38.053,0,0,1-9.437-3.1l-.221-.109v-.293c-.017-8.472-.036-18.43-.057-29.061v-.471l.381-.034.044,0c8.835-.938,16.974,1.878,23.423,4.833l.238.109,0,.3c-.075,8.676-.14,15.953-.186,21.209q-.059,3.638-.095,5.854A18.035,18.035,0,0,1,451.014,658.6Z" transform="translate(-427.294 -624.115)" fill="#eab556"/>
            </g>
          </g>
        </g>
        <g id="Grupo_147508" data-name="Grupo 147508" transform="translate(27.885 38.556)">
          <g id="Grupo_147501" data-name="Grupo 147501" transform="translate(7.617 11.74)">
            <g id="Grupo_147500" data-name="Grupo 147500">
              <g id="Grupo_147499" data-name="Grupo 147499">
                <path id="Trazado_198005" data-name="Trazado 198005" d="M461.953,594.774c0,.134-1.79.295-4.692.349s-6.912-.015-11.332-.328-8.413-.816-11.288-1.284-4.64-.88-4.625-1.014,1.8.016,4.688.3,6.868.67,11.274.985,8.4.5,11.291.624S461.952,594.628,461.953,594.774Z" transform="translate(-430.015 -592.443)" fill="#eab556"/>
              </g>
            </g>
          </g>
          <g id="Grupo_147504" data-name="Grupo 147504" transform="translate(7.984 17.717)">
            <g id="Grupo_147503" data-name="Grupo 147503">
              <g id="Grupo_147502" data-name="Grupo 147502">
                <path id="Trazado_198006" data-name="Trazado 198006" d="M458.338,599.518c-.006.139-1.578.121-4.117-.023s-6.045-.412-9.913-.771-7.368-.742-9.9-1.069-4.084-.6-4.071-.737,1.589-.12,4.129.023,6.039.412,9.9.771,7.355.74,9.883,1.067S458.343,599.378,458.338,599.518Z" transform="translate(-430.341 -596.823)" fill="#eab556"/>
              </g>
            </g>
          </g>
          <g id="Grupo_147507" data-name="Grupo 147507">
            <g id="Grupo_147506" data-name="Grupo 147506">
              <g id="Grupo_147505" data-name="Grupo 147505">
                <path id="Trazado_198007" data-name="Trazado 198007" d="M468.01,612.567c-.021-.027-.012-.651.019-1.81q.061-1.863.163-5.02c.172-4.4.413-10.589.71-18.192l.305.39a284.384,284.384,0,0,1-44.388-2.981c-.419.422.565-.579.464-.472v.045l0,.052,0,.1-.01.206-.019.412-.039.822-.079,1.636q-.079,1.632-.157,3.246-.157,3.227-.309,6.366c-.206,4.182-.406,8.233-.6,12.109l-.348-.5a316.747,316.747,0,0,0,31.788,3.094l9.2.337,2.421.091a6,6,0,0,1,.882.071,4.176,4.176,0,0,1-.813.071c-.547.027-1.416.072-2.491.086-2.145.038-5.275.044-9.215-.059a276.3,276.3,0,0,1-31.869-2.738l-.37-.053.021-.452c.18-3.876.368-7.928.563-12.11q.149-3.138.3-6.367.076-1.613.154-3.246l.078-1.637.039-.822.02-.412.009-.206.006-.1,0-.052v-.045c-.1.1.885-.9.47-.476A311.689,311.689,0,0,0,469.2,587.2h.329l-.023.39c-.435,7.685-.79,13.941-1.042,18.387q-.2,3.1-.312,4.93A15.485,15.485,0,0,1,468.01,612.567Z" transform="translate(-423.253 -583.842)" fill="#eab556"/>
              </g>
            </g>
          </g>
        </g>
        <g id="Grupo_147511" data-name="Grupo 147511" transform="translate(72.617 67.274)">
          <g id="Grupo_147510" data-name="Grupo 147510">
            <g id="Grupo_147509" data-name="Grupo 147509">
              <path id="Trazado_198008" data-name="Trazado 198008" d="M468.458,615.82c-.2.138-1.535-2.218-3.09-5.2s-2.581-5.6-2.38-5.735,1.534,2.218,3.09,5.2S468.659,615.683,468.458,615.82Z" transform="translate(-462.963 -604.883)" fill="#eab556"/>
            </g>
          </g>
        </g>
      </g>
    </g>
    <g id="Grupo_147536" data-name="Grupo 147536" transform="translate(0 121.233)">
      <g id="Grupo_147515" data-name="Grupo 147515">
        <g id="Grupo_147514" data-name="Grupo 147514">
          <path id="Trazado_198009" data-name="Trazado 198009" d="M236.788,474.618l20.363,149.258s31.077,70.514,113.671,86.407l-13.327-133.24S281.118,548.427,236.788,474.618Z" transform="translate(-236.788 -474.618)" fill="#eab556"/>
        </g>
      </g>
      <g id="Grupo_147517" data-name="Grupo 147517" opacity="0.8">
        <g id="Grupo_147516" data-name="Grupo 147516">
          <path id="Trazado_198010" data-name="Trazado 198010" d="M236.788,474.618l20.363,149.258s31.077,70.514,113.671,86.407l-13.327-133.24S281.118,548.427,236.788,474.618Z" transform="translate(-236.788 -474.618)" fill="#fff"/>
        </g>
      </g>
      <g id="Grupo_147520" data-name="Grupo 147520" transform="translate(10.648 40.28)">
        <g id="Grupo_147519" data-name="Grupo 147519">
          <g id="Grupo_147518" data-name="Grupo 147518">
            <path id="Trazado_198011" data-name="Trazado 198011" d="M358.973,688.877a2.089,2.089,0,0,1-.525-.147l-1.52-.535c-1.382-.509-3.333-1.23-5.82-2.148-2.515-.98-5.65-1.982-9.13-3.7l-5.622-2.595a66.99,66.99,0,0,1-6.235-3.109c-4.3-2.386-9.075-4.836-13.928-8.144a175.124,175.124,0,0,1-15.29-10.933,166.662,166.662,0,0,1-30.689-32.224,113.475,113.475,0,0,1-11.071-18.712l-.028-.063-.01-.085c-3.716-29.085-6.981-54.64-9.325-73-1.129-9.1-2.036-16.422-2.669-21.532-.291-2.476-.518-4.415-.68-5.8-.065-.621-.117-1.116-.158-1.5a2.673,2.673,0,0,1-.028-.517,2.678,2.678,0,0,1,.1.5c.06.385.135.875.231,1.49.2,1.379.47,3.308.82,5.773.691,5.1,1.681,12.4,2.912,21.486,2.415,18.342,5.778,43.878,9.605,72.943l-.038-.146a113.508,113.508,0,0,0,10.968,18.5,168.05,168.05,0,0,0,30.484,32.111,178.914,178.914,0,0,0,15.189,10.968c4.82,3.328,9.567,5.808,13.838,8.229a68.117,68.117,0,0,0,6.2,3.168l5.586,2.66c3.457,1.769,6.572,2.824,9.068,3.86L356.977,688l1.495.631A2.428,2.428,0,0,1,358.973,688.877Z" transform="translate(-246.24 -504.13)" fill="#eab556"/>
          </g>
        </g>
      </g>
      <g id="Grupo_147523" data-name="Grupo 147523" transform="translate(17.807 73.359)">
        <g id="Grupo_147522" data-name="Grupo 147522">
          <g id="Grupo_147521" data-name="Grupo 147521">
            <path id="Trazado_198012" data-name="Trazado 198012" d="M350.909,636.709a1.69,1.69,0,0,1-.282.311l-.875.852-3.434,3.24L333.348,653.15l-.205.19-.152-.255-15.865-26.592.486.1-12.164,10.494-.405.349-.172-.566c-4.747-15.6-10.071-33.1-15.681-51.529q-1.134-3.736-2.251-7.418l.765.053L277.8,601.8l-.43,1.033-.312-1.092-20.691-72.278.438-.03c-1.3,6.641-2.327,11.892-3.043,15.546q-.534,2.621-.834,4.1l-.229,1.047a1.6,1.6,0,0,1-.1.348,1.635,1.635,0,0,1,.037-.364c.045-.283.1-.629.169-1.063q.259-1.491.718-4.129c.667-3.667,1.623-8.937,2.834-15.6l.171-.944.267.914c4.827,16.564,12.267,42.1,21.022,72.137l-.742-.059,9.881-23.839.433-1.044.332,1.1q1.117,3.679,2.252,7.418c5.584,18.443,10.884,35.951,15.611,51.559l-.578-.216,12.2-10.432.285-.244.2.343c6.057,10.306,11.385,19.374,15.706,26.728l-.356-.065,13.112-11.812,3.513-3.113.916-.785A1.6,1.6,0,0,1,350.909,636.709Z" transform="translate(-252.596 -528.366)" fill="#eab556"/>
          </g>
        </g>
      </g>
      <g id="Grupo_147526" data-name="Grupo 147526" transform="translate(72.357 87.727)">
        <g id="Grupo_147525" data-name="Grupo 147525">
          <g id="Grupo_147524" data-name="Grupo 147524">
            <path id="Trazado_198013" data-name="Trazado 198013" d="M341.937,561.284a6.158,6.158,0,0,1-1.734-.47c-1.1-.36-2.68-.946-4.615-1.722a141.83,141.83,0,0,1-14.835-7.048,149.714,149.714,0,0,1-14.177-8.823c-1.761-1.246-3.167-2.293-4.118-3.056a7.653,7.653,0,0,1-1.436-1.265,6.728,6.728,0,0,1,1.6.925q1.74,1.138,4.24,2.769c3.583,2.327,8.581,5.429,14.232,8.525s10.877,5.578,14.688,7.3l4.518,2.023A6.736,6.736,0,0,1,341.937,561.284Z" transform="translate(-301.021 -538.893)" fill="#eab556"/>
          </g>
        </g>
      </g>
      <g id="Grupo_147529" data-name="Grupo 147529" transform="translate(90.658 105.072)">
        <g id="Grupo_147528" data-name="Grupo 147528">
          <g id="Grupo_147527" data-name="Grupo 147527">
            <path id="Trazado_198014" data-name="Trazado 198014" d="M343.162,562.838c-.025.13-1.556-.156-3.99-.854a79.385,79.385,0,0,1-9.359-3.394,83.138,83.138,0,0,1-9.014-4.567,16.653,16.653,0,0,1-3.532-2.4c.053-.132,1.476.6,3.774,1.751s5.483,2.716,9.053,4.267,6.849,2.787,9.231,3.657S343.19,562.694,343.162,562.838Z" transform="translate(-317.267 -551.602)" fill="#eab556"/>
          </g>
        </g>
      </g>
      <g id="Grupo_147531" data-name="Grupo 147531" transform="translate(81.238 169.284)">
        <g id="Grupo_147530" data-name="Grupo 147530">
          <path id="Trazado_198015" data-name="Trazado 198015" d="M311.673,600.885c0,1.235-.62,2.236-1.384,2.236s-1.383-1-1.383-2.236.62-2.237,1.383-2.237S311.673,599.65,311.673,600.885Z" transform="translate(-308.905 -598.648)" fill="#eab556"/>
        </g>
      </g>
      <g id="Grupo_147533" data-name="Grupo 147533" transform="translate(51.025 122.101)">
        <g id="Grupo_147532" data-name="Grupo 147532">
          <ellipse id="Elipse_5813" data-name="Elipse 5813" cx="1.384" cy="2.236" rx="1.384" ry="2.236" fill="#eab556"/>
        </g>
      </g>
      <g id="Grupo_147535" data-name="Grupo 147535" transform="translate(20.514 72.862)">
        <g id="Grupo_147534" data-name="Grupo 147534">
          <path id="Trazado_198016" data-name="Trazado 198016" d="M257.768,530.238c0,1.235-.621,2.236-1.384,2.236s-1.384-1-1.384-2.236.62-2.236,1.384-2.236S257.768,529,257.768,530.238Z" transform="translate(-254.999 -528.002)" fill="#eab556"/>
        </g>
      </g>
    </g>
    <g id="Grupo_147552" data-name="Grupo 147552" transform="translate(416.747 111.347)">
      <g id="Grupo_147538" data-name="Grupo 147538" transform="translate(0 36.477)">
        <g id="Grupo_147537" data-name="Grupo 147537">
          <path id="Trazado_198017" data-name="Trazado 198017" d="M728.765,494.1l-10.2,151.64s-29.786,64.849-111.817,67.318l10.137-152.677S688.44,556.866,728.765,494.1Z" transform="translate(-606.744 -494.101)" fill="#eab556"/>
        </g>
      </g>
      <g id="Grupo_147540" data-name="Grupo 147540" transform="translate(77.684)">
        <g id="Grupo_147539" data-name="Grupo 147539">
          <path id="Trazado_198018" data-name="Trazado 198018" d="M718.526,495.946c-2.675-10.5-9.155-25.456-24.583-28.571L675.706,671.347s34.236-8.283,35.154-31.019c.079-1.963,6.93-103.338,8.642-128.439A49.551,49.551,0,0,0,718.526,495.946Z" transform="translate(-675.706 -467.375)" fill="#eab556"/>
        </g>
      </g>
      <g id="Grupo_147542" data-name="Grupo 147542" transform="translate(0 36.477)" opacity="0.8">
        <g id="Grupo_147541" data-name="Grupo 147541">
          <path id="Trazado_198019" data-name="Trazado 198019" d="M728.765,494.1l-10.2,151.64s-29.786,64.849-111.817,67.318l10.137-152.677S688.44,556.866,728.765,494.1Z" transform="translate(-606.744 -494.101)" fill="#fff"/>
        </g>
      </g>
      <g id="Grupo_147544" data-name="Grupo 147544" transform="translate(21.085 75.136)">
        <g id="Grupo_147543" data-name="Grupo 147543">
          <path id="Trazado_198020" data-name="Trazado 198020" d="M723.953,522.425a103.459,103.459,0,0,0-13.073,49.04c-.082,5.03.161,10.242-1.417,14.895s-5.7,8.537-9.707,7.208c-4.185-1.389-6.056-7.381-9.724-10.19-3.261-2.5-7.672-2.073-11.006.281s-5.689,6.364-7.227,10.653c-2.983,8.315-3.178,17.691-5.374,26.358s-7.585,17.4-15.06,17.8c-2.729.145-5.431-.857-8.161-.759-5.774.209-10.784,5.406-13.477,11.6s-3.5,13.3-4.265,20.234c0,0,43.728,5.047,92.822-65.183Z" transform="translate(-625.462 -522.425)" fill="#eab556"/>
        </g>
      </g>
      <g id="Grupo_147546" data-name="Grupo 147546" transform="translate(46.623 163.713)">
        <g id="Grupo_147545" data-name="Grupo 147545">
          <path id="Trazado_198021" data-name="Trazado 198021" d="M651.564,590.73c0,1.881-.769,3.407-1.717,3.407s-1.716-1.526-1.716-3.407.768-3.407,1.716-3.407S651.564,588.849,651.564,590.73Z" transform="translate(-648.132 -587.323)" fill="#eab556"/>
        </g>
      </g>
      <g id="Grupo_147548" data-name="Grupo 147548" transform="translate(67.221 100.667)">
        <g id="Grupo_147547" data-name="Grupo 147547">
          <path id="Trazado_198022" data-name="Trazado 198022" d="M669.849,544.538c0,1.881-.768,3.406-1.716,3.406s-1.715-1.525-1.715-3.406.768-3.407,1.715-3.407S669.849,542.656,669.849,544.538Z" transform="translate(-666.418 -541.131)" fill="#eab556"/>
        </g>
      </g>
      <g id="Grupo_147551" data-name="Grupo 147551" transform="translate(22.931 82.453)">
        <g id="Grupo_147550" data-name="Grupo 147550">
          <g id="Grupo_147549" data-name="Grupo 147549">
            <path id="Trazado_198023" data-name="Trazado 198023" d="M722.764,527.786a5.513,5.513,0,0,1-.283.864l-.925,2.457c-.862,2.212-2.075,5.331-3.606,9.262-3.179,8.024-7.669,19.354-13.04,32.91l-.176.445-.347-.265-30.934-23.715.61-.237c-.407,1.215-.845,2.521-1.284,3.834-7.654,22.7-14.657,43.472-19.977,59.257l-.137.405-.313-.214c-7.713-5.257-14.005-9.479-18.38-12.359-2.189-1.433-3.9-2.54-5.066-3.259l-1.339-.793a2.015,2.015,0,0,1-.467-.251c.054-.191,2.622,1.14,7.039,3.923,4.428,2.768,10.768,6.888,18.524,12.068l-.449.191c5.272-15.809,12.208-36.609,19.79-59.35.441-1.313.879-2.619,1.286-3.832l.188-.562.422.325,30.878,23.825-.523.18c5.483-13.49,10.066-24.765,13.312-32.75,1.606-3.887,2.882-6.969,3.786-9.156l1.024-2.4A5,5,0,0,1,722.764,527.786Z" transform="translate(-627.1 -527.786)" fill="#eab556"/>
          </g>
        </g>
      </g>
    </g>
    <g id="Grupo_147574" data-name="Grupo 147574" transform="translate(24.613 288.16)">
      <g id="Grupo_147555" data-name="Grupo 147555" transform="translate(33.725 149.147)">
        <g id="Grupo_147554" data-name="Grupo 147554">
          <g id="Grupo_147553" data-name="Grupo 147553">
            <path id="Trazado_198024" data-name="Trazado 198024" d="M425.469,708.217c4.389-.577,9.029-1.25,11.451-1.531-.052-.161-.1-.323-.143-.489-2.348.263-6.77.822-11.061,1.376C425.649,707.765,425.55,708.034,425.469,708.217Z" transform="translate(-271.263 -706.197)" fill="#eab556"/>
            <path id="Trazado_198025" data-name="Trazado 198025" d="M734.051,780.9a37.791,37.791,0,0,0-3.35-8.633,51.844,51.844,0,0,0-4.857-7.205,77.575,77.575,0,0,0-11.407-11.349,117.48,117.48,0,0,0-12.043-8.659,190.942,190.942,0,0,0-23.433-12.557,303.364,303.364,0,0,0-39.234-14.483c-10.936-3.254-19.522-5.275-25.351-6.562q-2.9-.641-4.878-1.044c.007.046.011.091.016.137,1.309.287,2.921.637,4.833,1.1,5.817,1.348,14.39,3.43,25.306,6.737A307.7,307.7,0,0,1,678.8,733a191.641,191.641,0,0,1,23.354,12.6,117.518,117.518,0,0,1,11.978,8.651,77.169,77.169,0,0,1,11.3,11.286,51.079,51.079,0,0,1,4.781,7.114,37.028,37.028,0,0,1,3.264,8.446,28.43,28.43,0,0,1,.58,9.435l-.08,1.2c-.045.4-.148.786-.219,1.181l-.471,2.365a13.724,13.724,0,0,1-.654,2.309l-.758,2.283a49.337,49.337,0,0,1-10.231,15.779,94.2,94.2,0,0,1-14.127,12.192,171.623,171.623,0,0,1-33.512,17.689,302.76,302.76,0,0,1-37.49,12.252,470.921,470.921,0,0,1-82.682,13.071,580.371,580.371,0,0,1-89.562-.426c-30.6-2.607-60.4-7.493-88.517-15.793A251.008,251.008,0,0,1,335.2,839.1c-12.792-6.426-25.129-14.088-34.8-25.1-4.733-5.5-8.864-12.031-10.375-19.616a33.637,33.637,0,0,1-.463-11.414l.551-2.777c.1-.46.168-.93.288-1.38l.439-1.323.873-2.638c.355-.842.76-1.653,1.137-2.479a56.039,56.039,0,0,1,12.395-16.43,103,103,0,0,1,15.139-11.715,167.992,167.992,0,0,1,21.957-11.711c-.119-.217-.226-.444-.327-.674a167.981,167.981,0,0,0-21.943,11.671,103.579,103.579,0,0,0-15.251,11.773,56.792,56.792,0,0,0-12.583,16.66c-.386.843-.8,1.673-1.164,2.534l-.9,2.705-.449,1.358c-.125.463-.2.947-.3,1.419l-.569,2.862a34.673,34.673,0,0,0,.466,11.773c1.558,7.819,5.777,14.474,10.565,20.049,9.791,11.152,22.185,18.843,35.024,25.307a251.226,251.226,0,0,0,40.657,15.609c28.171,8.33,58.01,13.227,88.649,15.838a579.435,579.435,0,0,0,89.664.407,470.451,470.451,0,0,0,82.791-13.146,303.336,303.336,0,0,0,37.561-12.318,172.165,172.165,0,0,0,33.62-17.8,94.982,94.982,0,0,0,14.223-12.31,50.116,50.116,0,0,0,10.364-16.046l.774-2.337a14.384,14.384,0,0,0,.666-2.365l.48-2.427c.072-.405.176-.8.222-1.212l.081-1.237A29.282,29.282,0,0,0,734.051,780.9Z" transform="translate(-288.577 -704.662)" fill="#eab556"/>
          </g>
        </g>
      </g>
      <g id="Grupo_147558" data-name="Grupo 147558">
        <g id="Grupo_147557" data-name="Grupo 147557">
          <g id="Grupo_147556" data-name="Grupo 147556">
            <path id="Trazado_198026" data-name="Trazado 198026" d="M784.029,686.5a27.422,27.422,0,0,0-.3-3.4l-.62-3.332a26.516,26.516,0,0,0-.9-3.213,51.206,51.206,0,0,0-5.4-11.685,80.993,80.993,0,0,0-15.828-17.691,138.086,138.086,0,0,0-17.627-12.493,5.783,5.783,0,0,1-.452.628,138.148,138.148,0,0,1,17.683,12.546,80.343,80.343,0,0,1,15.661,17.529,50.4,50.4,0,0,1,5.3,11.47,25.907,25.907,0,0,1,.879,3.139l.6,3.248a26.3,26.3,0,0,1,.293,3.314,25.85,25.85,0,0,1,.1,3.343c-.211,9.018-3.841,17.578-8.765,24.551a86.141,86.141,0,0,1-17.678,18.07A152.131,152.131,0,0,1,735.979,746.1a271.219,271.219,0,0,1-46.445,19.321c-32.322,10.287-66.666,16.568-101.973,20.132a680.783,680.783,0,0,1-103.353,2.232,582.958,582.958,0,0,1-95.683-12.787c-30.138-6.853-58.537-16.033-83.4-29.723-12.343-6.921-23.942-14.966-33.078-25.586a55.266,55.266,0,0,1-10.689-18.112,39.172,39.172,0,0,1-1.27-20.948,48.581,48.581,0,0,1,8.009-17.792,77.649,77.649,0,0,1,11.813-13.157,119.559,119.559,0,0,1,12.8-9.946c4.279-2.945,8.562-5.5,12.75-7.83a265.809,265.809,0,0,1,44.566-19.089c12.532-4.148,51.834-11.679,58.528-13.367,3.344-.869,5.909-1.445,7.628-1.869s2.6-.652,2.6-.652-3.547.7-10.258,2.328-46.024,9.1-58.578,13.194A263.528,263.528,0,0,0,305.27,631.4c-4.2,2.323-8.5,4.873-12.8,7.818a119.508,119.508,0,0,0-12.867,9.957,78.056,78.056,0,0,0-11.922,13.23,49.248,49.248,0,0,0-8.148,18.046,40.014,40.014,0,0,0,1.27,21.392,56.02,56.02,0,0,0,10.807,18.378c9.211,10.732,20.854,18.819,33.232,25.781,24.933,13.765,53.37,22.983,83.545,29.871a582.253,582.253,0,0,0,95.783,12.858,679.785,679.785,0,0,0,103.454-2.215c35.344-3.568,69.729-9.861,102.108-20.179a271.7,271.7,0,0,0,46.557-19.395,152.879,152.879,0,0,0,21.078-13.65,86.932,86.932,0,0,0,17.834-18.259,51.857,51.857,0,0,0,6.245-11.716,40.943,40.943,0,0,0,2.678-13.383A26.661,26.661,0,0,0,784.029,686.5Z" transform="translate(-258.638 -596.921)" fill="#eab556"/>
          </g>
        </g>
      </g>
      <g id="Grupo_147561" data-name="Grupo 147561" transform="translate(74.467 284.585)">
        <g id="Grupo_147560" data-name="Grupo 147560">
          <g id="Grupo_147559" data-name="Grupo 147559">
            <path id="Trazado_198027" data-name="Trazado 198027" d="M695.1,862.056a46.54,46.54,0,0,0-10.759-15.169c-8.565-8.242-18.255-13.755-27.714-18.348a204.765,204.765,0,0,0-28.144-10.888c-3.444-1.073-6.834-2.034-10.2-2.943.061.162.116.328.168.494,3.279.894,6.583,1.836,9.938,2.885a204.819,204.819,0,0,1,28.089,10.9c9.433,4.59,19.094,10.1,27.6,18.3a46.067,46.067,0,0,1,10.634,15,28.455,28.455,0,0,1,.681,19.724A36.549,36.549,0,0,1,691,890.905c-.987,1.278-1.888,2.66-2.951,3.861-1.086,1.171-2.075,2.483-3.253,3.542a85.809,85.809,0,0,1-14.908,11.667A172.568,172.568,0,0,1,635.619,925.8c-24.034,8.222-49.688,13.116-76.06,15.882a480.407,480.407,0,0,1-77.22,1.628,403.372,403.372,0,0,1-71.409-10.342,260.408,260.408,0,0,1-32.454-10.052c-10.32-4.073-20.2-8.709-29.109-14.723a77.382,77.382,0,0,1-12.439-10.114,45.133,45.133,0,0,1-9.277-13.228l-.434-.93-.329-.985-.652-1.967c-.419-1.313-.583-2.713-.887-4.056-.1-1.381-.237-2.765-.247-4.14l.1-2.057c.053-.681.185-1.35.273-2.023a29.292,29.292,0,0,1,2.3-7.565,38.172,38.172,0,0,1,3.725-6.506,58.485,58.485,0,0,1,9.433-10.179,87.368,87.368,0,0,1,10.264-7.6,145.544,145.544,0,0,1,20.223-10.645,242.728,242.728,0,0,1,34.013-11.619c9.483-2.513,34.522-6.692,39.568-7.673l7.7-1.471s-2.663.409-7.715,1.355-30.1,5.087-39.592,7.567a240.792,240.792,0,0,0-34.065,11.533,145.359,145.359,0,0,0-20.275,10.626,87.3,87.3,0,0,0-10.308,7.61,58.724,58.724,0,0,0-9.5,10.23,38.625,38.625,0,0,0-3.774,6.573,29.753,29.753,0,0,0-2.343,7.684c-.09.684-.224,1.365-.279,2.06l-.1,2.1c.008,1.4.142,2.81.248,4.219.305,1.366.474,2.8.9,4.131l.661,2,.333,1,.438.943a45.575,45.575,0,0,0,9.358,13.376,77.731,77.731,0,0,0,12.493,10.181c8.937,6.044,18.838,10.7,29.175,14.788a260.4,260.4,0,0,0,32.5,10.09,403.119,403.119,0,0,0,71.474,10.385A479.941,479.941,0,0,0,559.6,942.26c26.395-2.768,52.075-7.669,76.149-15.913A172.829,172.829,0,0,0,670.1,910.47a86.194,86.194,0,0,0,14.986-11.74c1.185-1.067,2.185-2.393,3.28-3.575,1.072-1.213,1.986-2.614,2.982-3.906a37.069,37.069,0,0,0,4.457-9.039A29.1,29.1,0,0,0,695.1,862.056Z" transform="translate(-324.744 -805.429)" fill="#eab556"/>
          </g>
        </g>
      </g>
      <g id="Grupo_147563" data-name="Grupo 147563" transform="translate(35.464 162.169)">
        <g id="Grupo_147562" data-name="Grupo 147562">
          <path id="Trazado_198028" data-name="Trazado 198028" d="M299.978,721.711c0,3.3-2.207,5.971-4.929,5.971s-4.928-2.674-4.928-5.971,2.207-5.973,4.928-5.973S299.978,718.413,299.978,721.711Z" transform="translate(-290.12 -715.738)" fill="#eab556"/>
        </g>
      </g>
      <g id="Grupo_147565" data-name="Grupo 147565" transform="translate(481.236 166.217)">
        <g id="Grupo_147564" data-name="Grupo 147564" transform="translate(0)">
          <ellipse id="Elipse_5814" data-name="Elipse 5814" cx="4.929" cy="5.972" rx="4.929" ry="5.972" fill="#eab556"/>
        </g>
      </g>
      <g id="Grupo_147567" data-name="Grupo 147567" transform="translate(280.194 386.275)">
        <g id="Grupo_147566" data-name="Grupo 147566">
          <path id="Trazado_198029" data-name="Trazado 198029" d="M517.231,885.907c0,3.3-2.207,5.971-4.928,5.971s-4.929-2.674-4.929-5.971,2.207-5.973,4.929-5.973S517.231,882.608,517.231,885.907Z" transform="translate(-507.373 -879.934)" fill="#eab556"/>
        </g>
      </g>
      <g id="Grupo_147569" data-name="Grupo 147569" transform="translate(135.444 235.789)">
        <g id="Grupo_147568" data-name="Grupo 147568">
          <path id="Trazado_198030" data-name="Trazado 198030" d="M383.8,772.663a2.51,2.51,0,1,1-2.464-2.986A2.762,2.762,0,0,1,383.8,772.663Z" transform="translate(-378.875 -769.677)" fill="#eab556"/>
        </g>
      </g>
      <g id="Grupo_147571" data-name="Grupo 147571" transform="translate(441.925 308.154)">
        <g id="Grupo_147570" data-name="Grupo 147570">
          <path id="Trazado_198031" data-name="Trazado 198031" d="M655.873,825.683a2.51,2.51,0,1,1-2.465-2.986A2.763,2.763,0,0,1,655.873,825.683Z" transform="translate(-650.945 -822.697)" fill="#eab556"/>
        </g>
      </g>
      <g id="Grupo_147573" data-name="Grupo 147573" transform="translate(247.371 446.26)">
        <g id="Grupo_147572" data-name="Grupo 147572">
          <path id="Trazado_198032" data-name="Trazado 198032" d="M483.163,926.869a2.51,2.51,0,1,1-2.464-2.985A2.763,2.763,0,0,1,483.163,926.869Z" transform="translate(-478.235 -923.884)" fill="#eab556"/>
        </g>
      </g>
    </g>
  </g>
</svg>
